<svg width="152" height="36" viewBox="0 0 152 36" fill="none" xmlns="http://www.w3.org/2000/svg">
<path d="M32.6417 17.1885C32.2981 17.534 32.035 17.951 31.871 18.4096C31.7071 18.8684 31.6465 19.3575 31.6933 19.8424L31.677 19.8261C31.7253 20.3968 31.6482 20.9711 31.4514 21.509C31.2545 22.0469 30.9427 22.5353 30.5375 22.9403C30.1322 23.3453 29.6435 23.6571 29.1052 23.8537C28.5671 24.0504 27.9924 24.1274 27.4214 24.0792L27.4377 24.0955C26.7546 24.032 26.0686 24.1805 25.4731 24.5209C24.8776 24.8613 24.4016 25.377 24.1101 25.9976C23.8187 26.6183 23.7257 27.3136 23.8441 27.989C23.9626 28.6643 24.2866 29.2867 24.7719 29.7712C25.2572 30.2558 25.8802 30.579 26.556 30.6967C27.2319 30.8145 27.9275 30.721 28.5483 30.4291C29.1691 30.1372 29.6846 29.6612 30.0246 29.0657C30.3647 28.4702 30.5127 27.7845 30.4486 27.1019L30.4658 27.1182C30.4176 26.5475 30.4945 25.9732 30.6913 25.4352C30.8882 24.8974 31.2001 24.4089 31.6053 24.0039C32.0106 23.599 32.4993 23.2872 33.0375 23.0906C33.5757 22.8939 34.1504 22.8168 34.7214 22.8651L34.7042 22.8487C35.2621 22.8988 35.8238 22.8074 36.337 22.5829C36.8502 22.3584 37.2984 22.008 37.64 21.5643C37.9816 21.1206 38.2057 20.5978 38.2913 20.0445C38.377 19.4912 38.3215 18.9253 38.13 18.399C37.9386 17.8729 37.6173 17.4035 37.196 17.0345C36.7746 16.6654 36.2669 16.4086 35.7199 16.2879C35.1728 16.1673 34.6041 16.1865 34.0665 16.3438C33.5289 16.5013 33.0398 16.7918 32.6444 17.1885H32.6417Z" fill="#EAD834"/>
<path d="M25.9536 21.9583L25.9364 21.942C26.4217 21.9908 26.9119 21.9313 27.3714 21.7676C27.8309 21.604 28.2483 21.3404 28.5934 20.9958C28.9383 20.6513 29.2025 20.2343 29.3665 19.7752C29.5306 19.3161 29.5905 18.8263 29.542 18.3412L29.5593 18.3575C29.511 17.7868 29.5881 17.2125 29.7848 16.6746C29.9817 16.1367 30.2936 15.6483 30.6988 15.2433C31.104 14.8383 31.5928 14.5266 32.131 14.3299C32.6692 14.1332 33.2438 14.0562 33.8149 14.1044L33.7977 14.0881C34.4808 14.1523 35.167 14.0042 35.7629 13.6642C36.3588 13.3241 36.8351 12.8087 37.1271 12.1882C37.419 11.5676 37.5123 10.8722 37.3942 10.1967C37.2762 9.52121 36.9525 8.89858 36.4673 8.4137C35.9822 7.92883 35.3591 7.60533 34.6833 7.48734C34.0074 7.36934 33.3116 7.46258 32.6906 7.75436C32.0697 8.04612 31.554 8.52222 31.2137 9.1177C30.8735 9.71317 30.7253 10.399 30.7895 11.0818L30.7732 11.0645C30.8215 11.6353 30.7447 12.2097 30.5479 12.7476C30.3512 13.2856 30.0392 13.7741 29.6341 14.1792C29.2288 14.5841 28.74 14.8959 28.2017 15.0925C27.6633 15.2891 27.0886 15.366 26.5176 15.3177L26.5339 15.3349C26.0486 15.286 25.5584 15.3456 25.0989 15.5092C24.6394 15.6727 24.222 15.9364 23.877 16.281C23.5319 16.6256 23.2678 17.0426 23.1037 17.5017C22.9397 17.9608 22.8798 18.4505 22.9283 18.9356L22.912 18.9193C22.96 19.49 22.8829 20.0642 22.686 20.6021C22.4891 21.1398 22.1772 21.6283 21.7721 22.0332C21.3669 22.4381 20.8782 22.7498 20.34 22.9466C19.8019 23.1433 19.2273 23.2204 18.6563 23.1724L18.6726 23.1887C17.9895 23.1246 17.3032 23.2726 16.7074 23.6127C16.1116 23.9527 15.6352 24.4681 15.3432 25.0887C15.0513 25.7093 14.958 26.4047 15.076 27.0801C15.1941 27.7556 15.5178 28.3783 16.003 28.8631C16.4881 29.348 17.1111 29.6715 17.787 29.7895C18.4629 29.9075 19.1588 29.8142 19.7797 29.5225C20.4006 29.2307 20.9163 28.7547 21.2566 28.1592C21.5968 27.5636 21.745 26.8778 21.6808 26.1951L21.698 26.2114C21.6498 25.6407 21.7268 25.0664 21.9237 24.5285C22.1204 23.9906 22.4324 23.5021 22.8375 23.0971C23.2428 22.6922 23.7315 22.3804 24.2697 22.1838C24.808 21.9871 25.3826 21.9101 25.9536 21.9583Z" fill="#CE9238"/>
<path d="M19.8774 20.1401C20.2211 19.7947 20.4841 19.3777 20.6479 18.919C20.8117 18.4602 20.8721 17.971 20.8249 17.4862L20.8421 17.5025C20.7938 16.9317 20.8709 16.3572 21.0678 15.8191C21.2647 15.2811 21.5768 14.7925 21.9822 14.3875C22.3877 13.9825 22.8766 13.6709 23.4151 13.4743C23.9535 13.2777 24.5284 13.201 25.0995 13.2494L25.0823 13.2331C25.7652 13.297 26.4512 13.1489 27.0468 12.8089C27.6423 12.4689 28.1184 11.9536 28.4102 11.3333C28.702 10.7129 28.7952 10.0177 28.6771 9.3425C28.5591 8.66726 28.2354 8.04486 27.7505 7.56017C27.2655 7.07547 26.6427 6.75207 25.9671 6.63409C25.2915 6.51609 24.5958 6.60925 23.9752 6.90084C23.3544 7.19244 22.8388 7.66828 22.4986 8.26348C22.1584 8.85868 22.0102 9.54427 22.0742 10.2267L22.0579 10.2104C22.1061 10.7811 22.029 11.3555 21.8322 11.8933C21.6354 12.4312 21.3235 12.9197 20.9183 13.3247C20.5131 13.7297 20.0243 14.0414 19.4861 14.238C18.9479 14.4347 18.3732 14.5118 17.8022 14.4636L17.8185 14.4799C17.2606 14.4298 16.699 14.5214 16.1859 14.7461C15.6727 14.9707 15.2246 15.3212 14.8831 15.7649C14.5416 16.2087 14.3177 16.7315 14.2321 17.2847C14.1465 17.838 14.2021 18.404 14.3937 18.93C14.5852 19.4562 14.9065 19.9255 15.3279 20.2944C15.7492 20.6635 16.2569 20.9201 16.8039 21.0408C17.3509 21.1614 17.9196 21.1421 18.4572 20.9848C18.9948 20.8273 19.4839 20.5368 19.8792 20.1401H19.8774Z" fill="#EAD834"/>
<g opacity="0.7">
<path d="M43.1413 23.1461L48.0446 9.53557H50.8028L55.7061 23.1461H53.1012L52.0286 19.9963H46.7997L45.7079 23.1461H43.1413ZM47.47 18.0519H51.3582L49.4046 12.3938L47.47 18.0519Z" fill="#4C6379"/>
<path d="M60.6235 23.3795C59.6531 23.3795 58.7975 23.1656 58.0569 22.7378C57.3163 22.3101 56.7289 21.7138 56.2948 20.949C55.8734 20.1842 55.6627 19.3093 55.6627 18.3241C55.6627 17.339 55.8734 16.464 56.2948 15.6992C56.7289 14.9344 57.3163 14.3382 58.0569 13.9104C58.7975 13.4826 59.6531 13.2688 60.6235 13.2688C61.8366 13.2688 62.8581 13.5928 63.6881 14.2409C64.5181 14.8761 65.048 15.7575 65.2779 16.8853H62.6921C62.5644 16.4186 62.3091 16.0557 61.926 15.7964C61.5557 15.5242 61.1151 15.3881 60.6044 15.3881C59.9276 15.3881 59.353 15.6474 58.8805 16.1659C58.4081 16.6844 58.1719 17.4038 58.1719 18.3241C58.1719 19.2444 58.4081 19.9639 58.8805 20.4824C59.353 21.0009 59.9276 21.2601 60.6044 21.2601C61.1151 21.2601 61.5557 21.1305 61.926 20.8712C62.3091 20.612 62.5644 20.2426 62.6921 19.7629H65.2779C65.048 20.8518 64.5181 21.7268 63.6881 22.3878C62.8581 23.0489 61.8366 23.3795 60.6235 23.3795Z" fill="#4C6379"/>
<path d="M66.4962 23.1461V13.5021H68.6606L68.8713 14.8048C69.1778 14.3382 69.58 13.9687 70.078 13.6965C70.5887 13.4113 71.1761 13.2688 71.8401 13.2688C73.3086 13.2688 74.3493 13.8456 74.9622 14.9992C75.3069 14.4678 75.7666 14.0465 76.3412 13.7354C76.9286 13.4243 77.5671 13.2688 78.2566 13.2688C79.4952 13.2688 80.4465 13.6447 81.1105 14.3965C81.7745 15.1483 82.1065 16.2501 82.1065 17.7019V23.1461H79.6548V17.9352C79.6548 17.1056 79.4952 16.4705 79.176 16.0298C78.8695 15.589 78.3907 15.3687 77.7395 15.3687C77.0755 15.3687 76.5392 15.615 76.1306 16.1075C75.7347 16.6001 75.5368 17.2871 75.5368 18.1686V23.1461H73.0851V17.9352C73.0851 17.1056 72.9255 16.4705 72.6063 16.0298C72.287 15.589 71.7954 15.3687 71.1314 15.3687C70.4802 15.3687 69.9503 15.615 69.5417 16.1075C69.1458 16.6001 68.9479 17.2871 68.9479 18.1686V23.1461H66.4962Z" fill="#4C6379"/>
<path d="M88.0925 23.3795C87.1348 23.3795 86.2856 23.1721 85.545 22.7573C84.8044 22.3425 84.2234 21.7592 83.8021 21.0073C83.3807 20.2555 83.17 19.387 83.17 18.4019C83.17 17.4038 83.3743 16.5158 83.7829 15.7381C84.2043 14.9604 84.7789 14.3576 85.5067 13.9298C86.2473 13.4891 87.1156 13.2688 88.1116 13.2688C89.0438 13.2688 89.8674 13.4762 90.5825 13.891C91.2975 14.3058 91.853 14.8761 92.2488 15.602C92.6574 16.3149 92.8618 17.1121 92.8618 17.9936C92.8618 18.1362 92.8554 18.2852 92.8426 18.4408C92.8426 18.5963 92.8362 18.7584 92.8234 18.9269H85.6025C85.6536 19.6787 85.909 20.2685 86.3687 20.6962C86.8411 21.124 87.4093 21.3379 88.0733 21.3379C88.5713 21.3379 88.9863 21.2277 89.3183 21.0073C89.6631 20.774 89.9185 20.4759 90.0845 20.1129H92.5744C92.3957 20.7222 92.0956 21.2795 91.6742 21.7851C91.2656 22.2777 90.7548 22.6665 90.1419 22.9517C89.5418 23.2369 88.8586 23.3795 88.0925 23.3795ZM88.1116 15.2909C87.5115 15.2909 86.9816 15.4659 86.5219 15.8159C86.0622 16.1529 85.7685 16.6714 85.6408 17.3714H90.3718C90.3335 16.7362 90.1036 16.2307 89.6822 15.8548C89.2609 15.4789 88.7373 15.2909 88.1116 15.2909Z" fill="#4C6379"/>
<path d="M103.702 23.3795C102.348 23.3795 101.186 23.0878 100.216 22.5045C99.2451 21.9082 98.4981 21.0851 97.9746 20.0352C97.4511 18.9722 97.1893 17.7473 97.1893 16.3603C97.1893 14.9733 97.4511 13.7484 97.9746 12.6854C98.4981 11.6225 99.2451 10.7929 100.216 10.1967C101.186 9.60038 102.348 9.30225 103.702 9.30225C105.31 9.30225 106.626 9.71056 107.647 10.5272C108.682 11.3309 109.326 12.4651 109.582 13.9298H106.881C106.715 13.191 106.358 12.6142 105.808 12.1994C105.272 11.7716 104.557 11.5577 103.663 11.5577C102.425 11.5577 101.454 11.9855 100.752 12.841C100.05 13.6965 99.6984 14.8696 99.6984 16.3603C99.6984 17.851 100.05 19.0241 100.752 19.8796C101.454 20.7222 102.425 21.1434 103.663 21.1434C104.557 21.1434 105.272 20.949 105.808 20.5601C106.358 20.1583 106.715 19.6074 106.881 18.9074H109.582C109.326 20.3074 108.682 21.4027 107.647 22.1934C106.626 22.9841 105.31 23.3795 103.702 23.3795Z" fill="#4C6379"/>
<path d="M115.295 23.3795C114.376 23.3795 113.546 23.1656 112.805 22.7378C112.078 22.3101 111.497 21.7203 111.062 20.9684C110.641 20.2037 110.43 19.3222 110.43 18.3241C110.43 17.326 110.647 16.451 111.082 15.6992C111.516 14.9344 112.097 14.3382 112.825 13.9104C113.565 13.4826 114.395 13.2688 115.315 13.2688C116.221 13.2688 117.038 13.4826 117.766 13.9104C118.507 14.3382 119.088 14.9344 119.509 15.6992C119.943 16.451 120.16 17.326 120.16 18.3241C120.16 19.3222 119.943 20.2037 119.509 20.9684C119.088 21.7203 118.507 22.3101 117.766 22.7378C117.026 23.1656 116.202 23.3795 115.295 23.3795ZM115.295 21.2212C115.934 21.2212 116.489 20.9814 116.962 20.5018C117.434 20.0092 117.67 19.2833 117.67 18.3241C117.67 17.3649 117.434 16.6455 116.962 16.1659C116.489 15.6733 115.94 15.427 115.315 15.427C114.663 15.427 114.101 15.6733 113.629 16.1659C113.169 16.6455 112.939 17.3649 112.939 18.3241C112.939 19.2833 113.169 20.0092 113.629 20.5018C114.101 20.9814 114.657 21.2212 115.295 21.2212Z" fill="#4C6379"/>
<path d="M121.395 23.1461V13.5021H123.578L123.808 15.3103C124.153 14.6881 124.619 14.1956 125.206 13.8326C125.807 13.4567 126.509 13.2688 127.313 13.2688V15.8937H126.624C126.087 15.8937 125.609 15.9779 125.187 16.1464C124.766 16.3149 124.434 16.6066 124.191 17.0214C123.961 17.4362 123.846 18.013 123.846 18.7519V23.1461H121.395Z" fill="#4C6379"/>
<path d="M128.031 27.4237V13.5021H130.215L130.483 14.8826C130.789 14.4548 131.192 14.0789 131.69 13.7548C132.2 13.4308 132.858 13.2688 133.662 13.2688C134.556 13.2688 135.354 13.4891 136.057 13.9298C136.759 14.3706 137.314 14.9733 137.723 15.7381C138.132 16.5029 138.336 17.3714 138.336 18.3436C138.336 19.3157 138.132 20.1842 137.723 20.949C137.314 21.7008 136.759 22.2971 136.057 22.7378C135.354 23.1656 134.556 23.3795 133.662 23.3795C132.947 23.3795 132.322 23.2434 131.785 22.9711C131.249 22.6989 130.815 22.3165 130.483 21.824V27.4237H128.031ZM133.145 21.2018C133.924 21.2018 134.569 20.936 135.08 20.4046C135.591 19.8731 135.846 19.1861 135.846 18.3436C135.846 17.501 135.591 16.8075 135.08 16.2631C134.569 15.7187 133.924 15.4464 133.145 15.4464C132.354 15.4464 131.702 15.7187 131.192 16.2631C130.694 16.7945 130.445 17.4816 130.445 18.3241C130.445 19.1667 130.694 19.8602 131.192 20.4046C131.702 20.936 132.354 21.2018 133.145 21.2018Z" fill="#4C6379"/>
</g>
</svg>
