<svg width="52" height="54" viewBox="0 0 52 54" fill="none" xmlns="http://www.w3.org/2000/svg">
<path d="M21.364 29.2967L28.4122 25.2766M21.364 29.2967V52.9995M21.364 29.2967L1.73352 17.5497M28.4122 25.2766L12.6452 16.319M28.4122 25.2766V44.1762M32.9022 22.875L39.6371 18.9071M32.9022 22.875V46.8389M32.9022 22.875L12.6452 11.1802M39.6371 18.9071L24.0789 9.79792M39.6371 18.9071V37.6501M43.9705 16.5577L50.3399 12.6943M43.9705 16.5577V40.3128M43.9705 16.5577L24.0789 4.75855M50.3399 12.6943V36.7626L43.9705 40.3128M50.3399 12.6943L30.3962 0.999512L24.0789 4.75855M21.364 52.9995L28.4122 49.3971V44.1762M21.364 52.9995L1.73352 41.6702V17.5497M32.9022 46.8389L39.6371 43.0276V37.6501M32.9022 46.8389L28.4122 44.1762M43.9705 40.3128L39.6371 37.6501M1.73352 17.5497L8.103 13.7385L12.6452 16.319M12.6452 11.1802L19.4845 7.10795L24.0789 9.79792M12.6452 11.1802V16.319M24.0789 4.75855V9.79792" stroke="black"/>
</svg>
