<svg width="56" height="54" viewBox="0 0 56 54" fill="none" xmlns="http://www.w3.org/2000/svg">
<path d="M39.757 20.2151L54 27L39.4592 33.8427M39.757 20.2151L35.51 22.2607M39.757 20.2151L41.6733 19.3162M16.5903 20.2151L2 27L17.0717 33.8427M16.5903 20.2151L22.5282 22.9343M16.5903 20.2151L15.6215 19.7715M9.30279 10.0754L2 13.5339L9.30279 16.878M9.30279 10.0754L35.51 22.2607M9.30279 10.0754L15.6215 7.08297M35.51 22.2607L28.4661 25.6534L22.5282 22.9343M41.6733 19.3162L15.6215 7.08297M41.6733 19.3162L48.251 16.2307M15.6215 7.08297L22.0438 4.04149M22.0438 4.04149L28.4661 1L34.6622 4.04149M22.0438 4.04149L48.251 16.2307M48.251 16.2307L54 13.5339L48.251 10.7118M17.0717 33.8427L28.4661 39.0159L39.4592 33.8427M17.0717 33.8427L2 40.8805L28.4661 53L54 40.8805L39.4592 33.8427M22.5282 22.9343L48.251 10.7118M48.251 10.7118L41.6733 7.48303M41.6733 7.48303L15.6215 19.7715M41.6733 7.48303L34.6622 4.04149M15.6215 19.7715L9.30279 16.878M9.30279 16.878L34.6622 4.04149" stroke="black"/>
</svg>
