<svg width="141" height="36" viewBox="0 0 141 36" fill="none" xmlns="http://www.w3.org/2000/svg">
<g opacity="0.7">
<path d="M38.9667 24.0323V9.62051H48.2552V12.0911H41.6913V15.5293H47.6772V17.9999H41.6913V21.5617H48.379V24.0323H38.9667Z" fill="#4C6379"/>
<path d="M49.4464 28.1499V13.8205H52.0059V15.0558H52.3774C52.6114 14.6578 52.976 14.3078 53.4714 14.0058C53.9668 13.6901 54.6755 13.5323 55.5975 13.5323C56.4231 13.5323 57.1868 13.7382 57.8886 14.1499C58.5904 14.548 59.1546 15.1382 59.5812 15.9205C60.0078 16.7029 60.2211 17.6499 60.2211 18.7617V19.0911C60.2211 20.2029 60.0078 21.1499 59.5812 21.9323C59.1546 22.7146 58.5904 23.3117 57.8886 23.7235C57.1868 24.1215 56.4231 24.3205 55.5975 24.3205C54.9782 24.3205 54.4553 24.245 54.0287 24.0941C53.6159 23.9568 53.2788 23.7784 53.0173 23.5588C52.7696 23.3254 52.5701 23.0921 52.4187 22.8588H52.0472V28.1499H49.4464ZM54.8131 22.0558C55.625 22.0558 56.2924 21.8019 56.8153 21.2941C57.3519 20.7725 57.6203 20.0176 57.6203 19.0293V18.8235C57.6203 17.8352 57.3519 17.0872 56.8153 16.5793C56.2786 16.0578 55.6112 15.797 54.8131 15.797C54.015 15.797 53.3476 16.0578 52.8109 16.5793C52.2742 17.0872 52.0059 17.8352 52.0059 18.8235V19.0293C52.0059 20.0176 52.2742 20.7725 52.8109 21.2941C53.3476 21.8019 54.015 22.0558 54.8131 22.0558Z" fill="#4C6379"/>
<path d="M61.5771 24.0323V13.8205H64.1779V24.0323H61.5771ZM62.8775 12.6264C62.4096 12.6264 62.0106 12.4754 61.6803 12.1735C61.3638 11.8715 61.2055 11.4735 61.2055 10.9793C61.2055 10.4852 61.3638 10.0872 61.6803 9.78522C62.0106 9.48326 62.4096 9.33228 62.8775 9.33228C63.3591 9.33228 63.7582 9.48326 64.0747 9.78522C64.3912 10.0872 64.5494 10.4852 64.5494 10.9793C64.5494 11.4735 64.3912 11.8715 64.0747 12.1735C63.7582 12.4754 63.3591 12.6264 62.8775 12.6264Z" fill="#4C6379"/>
<path d="M70.8372 24.3205C69.8464 24.3205 68.9451 24.1146 68.1332 23.7029C67.3351 23.2911 66.7021 22.6941 66.2342 21.9117C65.7664 21.1293 65.5324 20.1823 65.5324 19.0705V18.7823C65.5324 17.6705 65.7664 16.7235 66.2342 15.9411C66.7021 15.1588 67.3351 14.5617 68.1332 14.1499C68.9451 13.7382 69.8464 13.5323 70.8372 13.5323C71.8142 13.5323 72.6536 13.7038 73.3554 14.047C74.0572 14.3901 74.6214 14.8637 75.048 15.4676C75.4883 16.0578 75.7773 16.7303 75.9149 17.4852L73.3967 18.0205C73.3417 17.6088 73.2178 17.2382 73.0252 16.9088C72.8325 16.5793 72.5573 16.3186 72.1995 16.1264C71.8555 15.9342 71.422 15.8382 70.8991 15.8382C70.3762 15.8382 69.9015 15.9548 69.4749 16.1882C69.0621 16.4078 68.7318 16.744 68.4841 17.197C68.2502 17.6362 68.1332 18.1784 68.1332 18.8235V19.0293C68.1332 19.6744 68.2502 20.2235 68.4841 20.6764C68.7318 21.1156 69.0621 21.4519 69.4749 21.6852C69.9015 21.9048 70.3762 22.0146 70.8991 22.0146C71.6835 22.0146 72.2752 21.8156 72.6743 21.4176C73.0871 21.0058 73.3485 20.4705 73.4586 19.8117L75.9768 20.4088C75.798 21.1362 75.4883 21.8019 75.048 22.4058C74.6214 22.996 74.0572 23.4627 73.3554 23.8058C72.6536 24.149 71.8142 24.3205 70.8372 24.3205Z" fill="#4C6379"/>
<path d="M80.9914 24.197C80.1932 24.197 79.4914 24.0186 78.886 23.6617C78.2942 23.2911 77.8333 22.7833 77.503 22.1382C77.1727 21.4931 77.0076 20.7519 77.0076 19.9146V13.8205H79.6084V19.7088C79.6084 20.4774 79.7942 21.0539 80.1657 21.4382C80.551 21.8225 81.0946 22.0146 81.7964 22.0146C82.5945 22.0146 83.2137 21.7539 83.6541 21.2323C84.0944 20.697 84.3146 19.9558 84.3146 19.0088V13.8205H86.9153V24.0323H84.3559V22.6941H83.9843C83.8192 23.0372 83.5096 23.3735 83.0555 23.7029C82.6014 24.0323 81.9133 24.197 80.9914 24.197Z" fill="#4C6379"/>
<path d="M88.7774 24.0323V13.8205H91.3369V14.9735H91.7084C91.8598 14.5617 92.1075 14.2597 92.4515 14.0676C92.8093 13.8754 93.2221 13.7793 93.69 13.7793H94.9285V16.0852H93.6487C92.9882 16.0852 92.4446 16.2637 92.0181 16.6205C91.5915 16.9637 91.3782 17.4989 91.3782 18.2264V24.0323H88.7774Z" fill="#4C6379"/>
<path d="M95.9292 24.0323V13.8205H98.53V24.0323H95.9292ZM97.2296 12.6264C96.7618 12.6264 96.3627 12.4754 96.0324 12.1735C95.7159 11.8715 95.5577 11.4735 95.5577 10.9793C95.5577 10.4852 95.7159 10.0872 96.0324 9.78522C96.3627 9.48326 96.7618 9.33228 97.2296 9.33228C97.7112 9.33228 98.1103 9.48326 98.4268 9.78522C98.7433 10.0872 98.9016 10.4852 98.9016 10.9793C98.9016 11.4735 98.7433 11.8715 98.4268 12.1735C98.1103 12.4754 97.7112 12.6264 97.2296 12.6264Z" fill="#4C6379"/>
<path d="M105.251 24.3205C104.233 24.3205 103.318 24.1146 102.506 23.7029C101.694 23.2911 101.054 22.6941 100.586 21.9117C100.119 21.1293 99.8846 20.1891 99.8846 19.0911V18.7617C99.8846 17.6637 100.119 16.7235 100.586 15.9411C101.054 15.1588 101.694 14.5617 102.506 14.1499C103.318 13.7382 104.233 13.5323 105.251 13.5323C106.27 13.5323 107.185 13.7382 107.997 14.1499C108.808 14.5617 109.448 15.1588 109.916 15.9411C110.384 16.7235 110.618 17.6637 110.618 18.7617V19.0911C110.618 20.1891 110.384 21.1293 109.916 21.9117C109.448 22.6941 108.808 23.2911 107.997 23.7029C107.185 24.1146 106.27 24.3205 105.251 24.3205ZM105.251 22.0146C106.049 22.0146 106.71 21.7607 107.233 21.2529C107.756 20.7313 108.017 19.9901 108.017 19.0293V18.8235C108.017 17.8627 107.756 17.1284 107.233 16.6205C106.724 16.0989 106.063 15.8382 105.251 15.8382C104.453 15.8382 103.793 16.0989 103.27 16.6205C102.747 17.1284 102.485 17.8627 102.485 18.8235V19.0293C102.485 19.9901 102.747 20.7313 103.27 21.2529C103.793 21.7607 104.453 22.0146 105.251 22.0146Z" fill="#4C6379"/>
<path d="M115.888 24.197C115.09 24.197 114.388 24.0186 113.782 23.6617C113.191 23.2911 112.73 22.7833 112.399 22.1382C112.069 21.4931 111.904 20.7519 111.904 19.9146V13.8205H114.505V19.7088C114.505 20.4774 114.691 21.0539 115.062 21.4382C115.447 21.8225 115.991 22.0146 116.693 22.0146C117.491 22.0146 118.11 21.7539 118.55 21.2323C118.991 20.697 119.211 19.9558 119.211 19.0088V13.8205H121.812V24.0323H119.252V22.6941H118.881C118.716 23.0372 118.406 23.3735 117.952 23.7029C117.498 24.0323 116.81 24.197 115.888 24.197Z" fill="#4C6379"/>
<path d="M127.926 24.3205C126.591 24.3205 125.497 24.0323 124.644 23.4558C123.791 22.8793 123.275 22.0558 123.096 20.9852L125.49 20.3676C125.587 20.848 125.745 21.2254 125.965 21.4999C126.199 21.7744 126.481 21.9735 126.811 22.097C127.155 22.2068 127.527 22.2617 127.926 22.2617C128.531 22.2617 128.979 22.1588 129.268 21.9529C129.557 21.7333 129.701 21.4656 129.701 21.1499C129.701 20.8342 129.563 20.5941 129.288 20.4293C129.013 20.2509 128.573 20.1068 127.967 19.997L127.389 19.894C126.674 19.7568 126.02 19.5715 125.428 19.3382C124.837 19.0911 124.362 18.7548 124.004 18.3293C123.646 17.9039 123.467 17.3548 123.467 16.6823C123.467 15.6666 123.839 14.8911 124.582 14.3558C125.325 13.8068 126.302 13.5323 127.513 13.5323C128.655 13.5323 129.605 13.7862 130.362 14.294C131.118 14.8019 131.614 15.4676 131.848 16.2911L129.433 17.0323C129.323 16.5107 129.096 16.1401 128.752 15.9205C128.421 15.7009 128.008 15.5911 127.513 15.5911C127.018 15.5911 126.639 15.6803 126.378 15.8588C126.116 16.0235 125.986 16.2568 125.986 16.5588C125.986 16.8882 126.123 17.1352 126.398 17.2999C126.674 17.4509 127.045 17.5676 127.513 17.6499L128.091 17.7529C128.862 17.8901 129.557 18.0754 130.176 18.3088C130.809 18.5284 131.304 18.8509 131.662 19.2764C132.033 19.6882 132.219 20.2509 132.219 20.9646C132.219 22.0352 131.827 22.8656 131.043 23.4558C130.272 24.0323 129.233 24.3205 127.926 24.3205Z" fill="#4C6379"/>
</g>
<path d="M9.35083 27.701C13.1248 27.701 16.1841 24.6494 16.1841 20.8852C16.1841 17.1209 13.1248 14.0693 9.35083 14.0693V18.8404C10.483 18.8404 11.4008 19.7558 11.4008 20.8852C11.4008 22.0144 10.483 22.9299 9.35083 22.9299V27.701Z" fill="#726BEA"/>
<path d="M32.1283 16.3395C30.9606 15.9706 29.7171 15.7715 28.4269 15.7715C21.6653 15.7715 16.1839 21.2389 16.1839 27.9831C16.1839 28.6601 16.2392 29.3242 16.3453 29.9711H23.9523C23.6808 29.3639 23.5298 28.6911 23.5298 27.9831C23.5298 25.2854 25.7223 23.0985 28.4269 23.0985C29.9052 23.0985 31.2304 23.7518 32.1283 24.7847V16.3395Z" fill="#A5B4FC"/>
<path d="M10.552 7.25317C11.1185 12.365 15.4635 16.341 20.7394 16.341C26.0153 16.341 30.3603 12.365 30.9268 7.25317H23.5965C23.144 8.38472 22.0353 9.18431 20.7394 9.18431C19.4435 9.18431 18.3348 8.38472 17.8822 7.25317H10.552Z" fill="#4F46E5"/>
</svg>
