<svg width="137" height="36" viewBox="0 0 137 36" fill="none" xmlns="http://www.w3.org/2000/svg">
<g opacity="0.7">
<path d="M46.1376 25.9137C47.8624 25.9137 49.2805 25.0401 49.7213 23.7296V25.7618H52.2701V20.6339C52.2701 19.4754 51.3503 18.4878 50.1046 18.4878H46.4634V20.6339H49.0506C49.3763 20.6339 49.5872 20.8428 49.5872 21.1657C49.5872 22.4002 47.939 23.5967 46.2717 23.5967C44.0487 23.5967 42.2856 21.8684 42.2856 19.1145C42.2856 16.3607 44.0487 14.7654 46.3292 14.7654C48.054 14.7654 49.2422 15.696 49.453 17.1204H52.3085C52.136 14.2716 49.7213 12.3154 46.3484 12.3154C42.803 12.3154 39.5451 14.5754 39.5451 19.1145C39.5451 23.6536 42.7072 25.9137 46.1376 25.9137Z" fill="#4C6379"/>
<path d="M53.3643 25.7618H56.0281V12.0305H53.3643V25.7618Z" fill="#4C6379"/>
<path d="M61.7742 25.9137C64.7447 25.9137 66.8719 23.8246 66.8719 20.9758C66.8719 18.127 64.7447 16.0378 61.7742 16.0378C58.8038 16.0378 56.6766 18.127 56.6766 20.9758C56.6766 23.8246 58.8038 25.9137 61.7742 25.9137ZM61.7742 23.6346C60.3369 23.6346 59.3596 22.5521 59.3596 20.9758C59.3596 19.3804 60.3369 18.2979 61.7742 18.2979C63.2116 18.2979 64.1889 19.3804 64.1889 20.9758C64.1889 22.5521 63.2116 23.6346 61.7742 23.6346Z" fill="#4C6379"/>
<path d="M72.8326 25.9137C75.6881 25.9137 77.3937 23.9575 77.3937 20.9758C77.3937 17.994 75.6881 16.0378 72.8709 16.0378C71.6636 16.0378 70.7245 16.4936 70.1879 17.1963V12.0305H67.5241V25.7618H70.1879V24.7172C70.7245 25.4579 71.7211 25.9137 72.8326 25.9137ZM72.411 23.6346C70.9737 23.6346 70.0346 22.5711 70.0346 20.9758C70.0346 19.3614 70.9737 18.2979 72.411 18.2979C73.81 18.2979 74.7682 19.3614 74.7682 20.9758C74.7682 22.5711 73.81 23.6346 72.411 23.6346Z" fill="#4C6379"/>
<path d="M81.8528 16.0378C79.2081 16.0378 77.6367 17.5762 77.5217 19.4944H79.898C79.9364 18.6967 80.5305 17.975 81.6995 17.975C82.7918 17.975 83.4243 18.5258 83.4243 19.3235C83.4243 19.7223 83.1751 20.0262 82.696 20.0262H81.0671C78.959 20.0262 77.5408 21.1657 77.5408 23.0459C77.5408 24.6792 78.8249 25.9137 80.7029 25.9137C82.0253 25.9137 83.0985 25.3249 83.4243 24.4323V25.7618H86.0689V19.6083C86.0689 17.4432 84.2867 16.0378 81.8528 16.0378ZM81.3737 23.9955C80.6263 23.9955 80.0897 23.5587 80.0897 22.9319C80.0897 22.1912 80.6646 21.6975 81.4695 21.6975H83.4243V21.8304C83.4243 23.0459 82.6769 23.9955 81.3737 23.9955Z" fill="#4C6379"/>
<path d="M87.0926 25.7618H89.7564V12.0305H87.0926V25.7618Z" fill="#4C6379"/>
<path d="M91.1714 25.7618H96.6524C99.4887 25.7618 101.443 24.3184 101.443 21.7924C101.443 20.0452 100.409 18.9816 99.182 18.5068C99.9678 18.089 100.753 17.1394 100.753 15.8859C100.753 13.6638 98.9329 12.4673 96.499 12.4673H91.1714V25.7618ZM94.0077 17.5382V14.7274H96.2307C97.5147 14.7274 98.0897 15.2402 98.0897 16.1328C98.0897 17.0254 97.5147 17.5382 96.2882 17.5382H94.0077ZM94.0077 23.2928V19.9502H96.4032C97.9939 19.9502 98.7029 20.5579 98.7029 21.6405C98.7029 22.723 97.9939 23.2928 96.4032 23.2928H94.0077Z" fill="#4C6379"/>
<path d="M106.078 16.0378C103.433 16.0378 101.861 17.5762 101.746 19.4944H104.123C104.161 18.6967 104.755 17.975 105.924 17.975C107.017 17.975 107.649 18.5258 107.649 19.3235C107.649 19.7223 107.4 20.0262 106.921 20.0262H105.292C103.184 20.0262 101.766 21.1657 101.766 23.0459C101.766 24.6792 103.05 25.9137 104.928 25.9137C106.25 25.9137 107.323 25.3249 107.649 24.4323V25.7618H110.294V19.6083C110.294 17.4432 108.511 16.0378 106.078 16.0378ZM105.598 23.9955C104.851 23.9955 104.314 23.5587 104.314 22.9319C104.314 22.1912 104.889 21.6975 105.694 21.6975H107.649V21.8304C107.649 23.0459 106.902 23.9955 105.598 23.9955Z" fill="#4C6379"/>
<path d="M111.164 25.7618H113.847V20.52C113.847 19.2855 114.671 18.3928 115.84 18.3928C116.952 18.3928 117.699 19.2285 117.699 20.387V25.7618H120.382V19.7983C120.382 17.5952 118.964 16.0378 116.779 16.0378C115.457 16.0378 114.384 16.5886 113.847 17.5192V16.1898H111.164V25.7618Z" fill="#4C6379"/>
<path d="M128.029 25.7618H131.248L127.09 19.9502L130.942 16.1898H127.569L124.215 19.4564V12.0305H121.532V25.7618H124.215V22.761L125.288 21.7164L128.029 25.7618Z" fill="#4C6379"/>
</g>
<path d="M19.3154 7.10205C25.5932 7.10205 30.682 12.1825 30.682 18.4499V26.3934C30.682 27.2962 30.3227 28.1622 29.6832 28.8006C29.0437 29.439 28.1764 29.7977 27.272 29.7977H19.8837V24.8194C19.8837 23.6835 19.953 22.5067 20.5498 21.5399C20.977 20.847 21.5485 20.254 22.2255 19.801C22.9025 19.348 23.6692 19.0457 24.4735 18.9146L24.6912 18.8794C24.781 18.8488 24.8589 18.7909 24.914 18.7139C24.9692 18.6369 24.9988 18.5446 24.9988 18.4499C24.9988 18.3552 24.9692 18.2629 24.914 18.1859C24.8589 18.1089 24.781 18.051 24.6912 18.0204L24.4735 17.9852C23.2983 17.7935 22.2131 17.2382 21.3711 16.3976C20.5291 15.5569 19.9728 14.4735 19.7808 13.3002L19.7456 13.0829C19.7149 12.9933 19.657 12.9156 19.5798 12.8605C19.5027 12.8054 19.4102 12.7758 19.3154 12.7758C19.2205 12.7758 19.1281 12.8054 19.0509 12.8605C18.9738 12.9156 18.9158 12.9933 18.8852 13.0829L18.8499 13.3002C18.7186 14.1032 18.4158 14.8687 17.9621 15.5446C17.5083 16.2205 16.9143 16.791 16.2202 17.2175C15.2518 17.8133 14.0731 17.8825 12.9353 17.8825H7.9624C8.25964 11.8789 13.2286 7.10205 19.3154 7.10205Z" fill="#F58A5C"/>
<path d="M7.94861 19.0179H12.9351C14.0729 19.0179 15.2517 19.0871 16.2201 19.6829C16.9771 20.1486 17.6143 20.7848 18.0808 21.5405C18.6776 22.5073 18.7469 23.6841 18.7469 24.82V29.7983H11.3586C10.4542 29.7983 9.58687 29.4396 8.94737 28.8012C8.30787 28.1628 7.94861 27.2969 7.94861 26.394V19.0179ZM30.6818 8.23744C30.6818 8.53841 30.5621 8.82704 30.3489 9.03986C30.1358 9.25267 29.8466 9.37223 29.5452 9.37223C29.2437 9.37223 28.9546 9.25267 28.7414 9.03986C28.5283 8.82704 28.4085 8.53841 28.4085 8.23744C28.4085 7.93648 28.5283 7.64784 28.7414 7.43503C28.9546 7.22222 29.2437 7.10266 29.5452 7.10266C29.8466 7.10266 30.1358 7.22222 30.3489 7.43503C30.5621 7.64784 30.6818 7.93648 30.6818 8.23744Z" fill="#F58A5C"/>
</svg>
