<svg width="54" height="52" viewBox="0 0 54 52" fill="none" xmlns="http://www.w3.org/2000/svg">
<path d="M37.5198 33.1262C46.0694 33.1262 53.0001 26.1954 53.0001 17.6459C53.0001 9.09631 46.0694 2.16553 37.5198 2.16553C28.9703 2.16553 22.0395 9.09631 22.0395 17.6459C22.0395 26.1954 28.9703 33.1262 37.5198 33.1262Z" stroke="black"/>
<path d="M26.7609 49.8623C35.3104 49.8623 42.2412 42.9315 42.2412 34.3819C42.2412 25.8324 35.3104 18.9016 26.7609 18.9016C18.2114 18.9016 11.2806 25.8324 11.2806 34.3819C11.2806 42.9315 18.2114 49.8623 26.7609 49.8623Z" stroke="black"/>
<path d="M16.4803 33.1262C25.0299 33.1262 31.9606 26.1954 31.9606 17.6459C31.9606 9.09631 25.0299 2.16553 16.4803 2.16553C7.93077 2.16553 1 9.09631 1 17.6459C1 26.1954 7.93077 33.1262 16.4803 33.1262Z" stroke="black"/>
<path d="M1.06085 16.5121L12.6562 28.0476M3.27233 9.51903L16.4814 22.7879M7.87459 4.79723L22.1595 19.5603M23.4745 11.1328L14.2699 2.34668" stroke="black"/>
</svg>
