<svg width="125" height="36" viewBox="0 0 125 36" fill="none" xmlns="http://www.w3.org/2000/svg">
<path d="M23.5747 18.0005C21.3827 20.5322 18.1971 22.1255 14.6516 22.1255C11.106 22.1255 7.9204 20.5322 5.72832 18.0005C7.9204 15.4688 11.106 13.8755 14.6516 13.8755C18.1971 13.8755 21.3827 15.4688 23.5747 18.0005Z" fill="#1280B2"/>
<path fill-rule="evenodd" clip-rule="evenodd" d="M2.68005 26.2502C2.68005 19.4157 8.03989 13.8752 14.6516 13.8752C11.106 13.8752 7.92047 15.4685 5.7284 18.0002C7.92047 20.5319 11.106 22.1253 14.6516 22.1253C18.1972 22.1253 21.3827 20.5319 23.5748 18.0002C25.4704 20.1896 26.6231 23.0808 26.6231 26.2502V30.9252C26.6231 31.5327 26.1467 32.0252 25.559 32.0252H3.74419C3.15648 32.0252 2.68005 31.5327 2.68005 30.9252V26.2502Z" fill="#BDE9FE"/>
<path fill-rule="evenodd" clip-rule="evenodd" d="M10.1612 21.2254C8.45183 20.5099 6.93868 19.3981 5.72839 18.0003C7.92046 15.4686 11.106 13.8754 14.6516 13.8754C18.1972 13.8754 21.3827 15.4686 23.5748 18.0003C25.4704 15.811 26.6231 12.9198 26.6231 9.75038V5.07534C26.6231 4.46783 26.1466 3.97534 25.559 3.97534H3.74418C3.15647 3.97534 2.68005 4.46782 2.68005 5.07534V9.75038C2.68005 14.9434 5.77445 19.3893 10.1612 21.2254Z" fill="#85D2F5"/>
<g opacity="0.7">
<path d="M45.3225 11.9163V24.3755H42.905V19.0741H37.7419V24.3755H35.3244V11.9163H37.7419V17.0392H42.905V11.9163H45.3225Z" fill="#4C6379"/>
<path d="M51.95 24.5361C51.0291 24.5361 50.2002 24.3279 49.4635 23.9114C48.7267 23.483 48.1454 22.882 47.7194 22.1085C47.3049 21.335 47.0978 20.4425 47.0978 19.431C47.0978 18.4195 47.3107 17.527 47.7366 16.7535C48.1741 15.98 48.767 15.385 49.5153 14.9685C50.2636 14.5401 51.0981 14.3259 52.0191 14.3259C52.9401 14.3259 53.7747 14.5401 54.523 14.9685C55.2713 15.385 55.8584 15.98 56.2843 16.7535C56.7218 17.527 56.9405 18.4195 56.9405 19.431C56.9405 20.4425 56.716 21.335 56.2671 22.1085C55.8296 22.882 55.231 23.483 54.4712 23.9114C53.7229 24.3279 52.8825 24.5361 51.95 24.5361ZM51.95 22.3584C52.3875 22.3584 52.7962 22.2513 53.1761 22.0371C53.5675 21.811 53.8783 21.4778 54.1086 21.0375C54.3388 20.5972 54.4539 20.0617 54.4539 19.431C54.4539 18.4909 54.2122 17.7709 53.7287 17.2712C53.2567 16.7594 52.6753 16.5036 51.9846 16.5036C51.2938 16.5036 50.7125 16.7594 50.2405 17.2712C49.78 17.7709 49.5498 18.4909 49.5498 19.431C49.5498 20.3711 49.7743 21.097 50.2232 21.6087C50.6838 22.1085 51.2593 22.3584 51.95 22.3584Z" fill="#4C6379"/>
<path d="M67.7448 14.4863V24.3752H65.3101V23.1257C64.9992 23.5541 64.5906 23.8932 64.084 24.1431C63.589 24.3812 63.048 24.5002 62.4608 24.5002C61.7126 24.5002 61.0506 24.3395 60.475 24.0182C59.8994 23.6851 59.4447 23.2031 59.1108 22.5724C58.7885 21.9298 58.6273 21.1682 58.6273 20.2875V14.4863H61.0448V19.9305C61.0448 20.7159 61.2348 21.3228 61.6147 21.7512C61.9947 22.1677 62.5127 22.376 63.1689 22.376C63.8365 22.376 64.3604 22.1677 64.7402 21.7512C65.1201 21.3228 65.3101 20.7159 65.3101 19.9305V14.4863H67.7448Z" fill="#4C6379"/>
<path d="M72.5476 16.0219C72.8584 15.4983 73.2614 15.0878 73.7564 14.7902C74.2629 14.4928 74.8385 14.344 75.4832 14.344V16.9679H74.8442C74.0845 16.9679 73.5089 17.1524 73.1174 17.5213C72.7375 17.8902 72.5476 18.5328 72.5476 19.4491V24.3757H70.13V14.4868H72.5476V16.0219Z" fill="#4C6379"/>
<path d="M80.8588 14.3259C81.5725 14.3259 82.1999 14.4747 82.741 14.7721C83.282 15.0577 83.708 15.4326 84.0188 15.8967V14.4866H86.4537V24.4469C86.4537 25.3632 86.2752 26.1783 85.9183 26.8923C85.5614 27.6182 85.0262 28.1894 84.3124 28.6059C83.5987 29.0343 82.7353 29.2485 81.7222 29.2485C80.3637 29.2485 79.2471 28.9212 78.3722 28.2667C77.5088 27.6123 77.0195 26.7197 76.9044 25.5892H79.3046C79.4313 26.0415 79.7019 26.3984 80.1162 26.6602C80.5422 26.9339 81.0545 27.0708 81.6531 27.0708C82.3553 27.0708 82.9252 26.8507 83.3627 26.4103C83.8001 25.9819 84.0188 25.3274 84.0188 24.4469V22.9117C83.708 23.3759 83.2763 23.7626 82.7237 24.072C82.1827 24.3814 81.5611 24.5361 80.8588 24.5361C80.0529 24.5361 79.3161 24.3219 78.6485 23.8935C77.9808 23.4651 77.4512 22.8641 77.0598 22.0907C76.6799 21.3052 76.49 20.4068 76.49 19.3953C76.49 18.3957 76.6799 17.5091 77.0598 16.7357C77.4512 15.9621 77.975 15.3671 78.6312 14.9506C79.2989 14.5342 80.0414 14.3259 80.8588 14.3259ZM84.0188 19.431C84.0188 18.8241 83.9037 18.3064 83.6735 17.878C83.4432 17.4378 83.1324 17.1046 82.741 16.8784C82.3496 16.6405 81.9294 16.5215 81.4804 16.5215C81.0315 16.5215 80.617 16.6345 80.2371 16.8606C79.8572 17.0867 79.5464 17.4199 79.3046 17.8602C79.0745 18.2886 78.9593 18.8003 78.9593 19.3953C78.9593 19.9903 79.0745 20.5139 79.3046 20.9661C79.5464 21.4064 79.8572 21.7455 80.2371 21.9836C80.6286 22.2215 81.0429 22.3405 81.4804 22.3405C81.9294 22.3405 82.3496 22.2275 82.741 22.0014C83.1324 21.7634 83.4432 21.4302 83.6735 21.0018C83.9037 20.5615 84.0188 20.0379 84.0188 19.431Z" fill="#4C6379"/>
<path d="M91.2321 11.1663V24.3752H88.8148V11.1663H91.2321Z" fill="#4C6379"/>
<path d="M92.9989 19.3953C92.9989 18.3957 93.1891 17.5091 93.5685 16.7357C93.9605 15.9621 94.4837 15.3671 95.14 14.9506C95.8078 14.5342 96.5507 14.3259 97.3677 14.3259C98.0819 14.3259 98.7034 14.4747 99.2328 14.7721C99.7739 15.0697 100.205 15.4445 100.527 15.8967V14.4866H102.962V24.3754H100.527V22.9296C100.217 23.3937 99.7855 23.7804 99.2328 24.0898C98.6918 24.3874 98.0641 24.5361 97.3507 24.5361C96.5444 24.5361 95.8078 24.3219 95.14 23.8935C94.4837 23.4651 93.9605 22.8641 93.5685 22.0907C93.1891 21.3052 92.9989 20.4068 92.9989 19.3953ZM100.527 19.431C100.527 18.8241 100.413 18.3064 100.183 17.878C99.9525 17.4378 99.6418 17.1046 99.2498 16.8784C98.8587 16.6405 98.4382 16.5215 97.9891 16.5215C97.5409 16.5215 97.1257 16.6345 96.7462 16.8606C96.3668 17.0867 96.0552 17.4199 95.8141 17.8602C95.5837 18.2886 95.4685 18.8003 95.4685 19.3953C95.4685 19.9903 95.5837 20.5139 95.8141 20.9661C96.0552 21.4064 96.3668 21.7455 96.7462 21.9836C97.1373 22.2215 97.5525 22.3405 97.9891 22.3405C98.4382 22.3405 98.8587 22.2275 99.2498 22.0014C99.6418 21.7634 99.9525 21.4302 100.183 21.0018C100.413 20.5615 100.527 20.0379 100.527 19.431Z" fill="#4C6379"/>
<path d="M108.985 24.5361C108.202 24.5361 107.5 24.3933 106.878 24.1077C106.256 23.8102 105.761 23.4115 105.393 22.9117C105.036 22.412 104.84 21.8586 104.806 21.2517H107.241C107.286 21.6325 107.465 21.9478 107.776 22.1978C108.098 22.4476 108.495 22.5726 108.968 22.5726C109.427 22.5726 109.785 22.4774 110.038 22.287C110.302 22.0966 110.435 21.8526 110.435 21.5552C110.435 21.2339 110.274 20.9958 109.952 20.8411C109.641 20.6745 109.14 20.4961 108.45 20.3056C107.735 20.1271 107.149 19.9427 106.688 19.7523C106.239 19.5619 105.848 19.2703 105.514 18.8777C105.192 18.4849 105.03 17.9554 105.03 17.289C105.03 16.7416 105.18 16.2418 105.479 15.7896C105.79 15.3374 106.227 14.9804 106.792 14.7186C107.368 14.4568 108.041 14.3259 108.812 14.3259C109.952 14.3259 110.861 14.6234 111.54 15.2184C112.219 15.8015 112.594 16.5928 112.663 17.5925H110.349C110.314 17.1997 110.153 16.8904 109.865 16.6642C109.589 16.4263 109.215 16.3073 108.743 16.3073C108.305 16.3073 107.966 16.3905 107.724 16.5571C107.494 16.7238 107.378 16.9558 107.378 17.2533C107.378 17.5865 107.54 17.8423 107.862 18.0209C108.185 18.1875 108.685 18.36 109.365 18.5385C110.055 18.717 110.625 18.9014 111.074 19.0919C111.523 19.2822 111.909 19.5798 112.231 19.9843C112.565 20.3771 112.737 20.9007 112.749 21.5552C112.749 22.1263 112.594 22.6381 112.283 23.0902C111.984 23.5425 111.546 23.8995 110.97 24.1612C110.406 24.4111 109.744 24.5361 108.985 24.5361Z" fill="#4C6379"/>
<path d="M118.395 24.5361C117.612 24.5361 116.91 24.3933 116.287 24.1077C115.666 23.8102 115.171 23.4115 114.803 22.9117C114.445 22.412 114.25 21.8586 114.216 21.2517H116.651C116.696 21.6325 116.875 21.9478 117.186 22.1978C117.508 22.4476 117.905 22.5726 118.378 22.5726C118.837 22.5726 119.195 22.4774 119.448 22.287C119.712 22.0966 119.845 21.8526 119.845 21.5552C119.845 21.2339 119.684 20.9958 119.361 20.8411C119.051 20.6745 118.55 20.4961 117.859 20.3056C117.145 20.1271 116.558 19.9427 116.098 19.7523C115.649 19.5619 115.257 19.2703 114.924 18.8777C114.602 18.4849 114.44 17.9554 114.44 17.289C114.44 16.7416 114.59 16.2418 114.889 15.7896C115.2 15.3374 115.637 14.9804 116.202 14.7186C116.777 14.4568 117.451 14.3259 118.222 14.3259C119.361 14.3259 120.271 14.6234 120.95 15.2184C121.629 15.8015 122.003 16.5928 122.072 17.5925H119.759C119.724 17.1997 119.563 16.8904 119.275 16.6642C118.999 16.4263 118.625 16.3073 118.153 16.3073C117.715 16.3073 117.376 16.3905 117.134 16.5571C116.903 16.7238 116.788 16.9558 116.788 17.2533C116.788 17.5865 116.95 17.8423 117.272 18.0209C117.595 18.1875 118.095 18.36 118.774 18.5385C119.465 18.717 120.035 18.9014 120.484 19.0919C120.933 19.2822 121.319 19.5798 121.641 19.9843C121.975 20.3771 122.147 20.9007 122.159 21.5552C122.159 22.1263 122.003 22.6381 121.693 23.0902C121.394 23.5425 120.956 23.8995 120.38 24.1612C119.816 24.4111 119.154 24.5361 118.395 24.5361Z" fill="#4C6379"/>
</g>
</svg>
