<svg width="127" height="36" viewBox="0 0 127 36" fill="none" xmlns="http://www.w3.org/2000/svg">
<g opacity="0.7">
<path d="M44.918 22.5471V9.578H42.7994V22.5471H44.918Z" fill="#4C6379"/>
<path d="M46.2146 18.2239C46.2146 20.8735 47.9858 22.7561 50.6774 22.7561C53.369 22.7561 55.1402 20.8735 55.1402 18.2239C55.1402 15.5743 53.369 13.6917 50.6774 13.6917C47.9858 13.6917 46.2146 15.5743 46.2146 18.2239ZM48.3505 18.2239C48.3505 16.6725 49.2708 15.5917 50.6774 15.5917C52.084 15.5917 53.0043 16.6725 53.0043 18.2239C53.0043 19.7578 52.084 20.856 50.6774 20.856C49.2708 20.856 48.3505 19.7578 48.3505 18.2239Z" fill="#4C6379"/>
<path d="M55.8528 18.0493C55.8528 20.5594 57.4677 22.3723 59.8815 22.3723C61.1317 22.3723 62.2084 21.8668 62.7467 21.0301V22.4943C62.7467 23.9063 61.8611 24.8476 60.385 24.8476C59.0653 24.8476 58.1623 24.2026 58.0408 23.0695H55.9049C56.1827 25.3182 57.9019 26.7825 60.2635 26.7825C63.0419 26.7825 64.8131 24.9522 64.8131 22.1108V13.9354H62.9377L62.8162 15.1033C62.2952 14.1969 61.2186 13.6565 59.9509 13.6565C57.5025 13.6565 55.8528 15.5217 55.8528 18.0493ZM58.006 17.997C58.006 16.5676 58.909 15.5217 60.2461 15.5217C61.7048 15.5217 62.6772 16.585 62.6772 17.997C62.6772 19.4263 61.7048 20.5245 60.2461 20.5245C58.9264 20.5245 58.006 19.4438 58.006 17.997Z" fill="#4C6379"/>
<path d="M65.8617 18.2239C65.8617 20.8735 67.6329 22.7561 70.3245 22.7561C73.0161 22.7561 74.7873 20.8735 74.7873 18.2239C74.7873 15.5743 73.0161 13.6917 70.3245 13.6917C67.6329 13.6917 65.8617 15.5743 65.8617 18.2239ZM67.9976 18.2239C67.9976 16.6725 68.9179 15.5917 70.3245 15.5917C71.7311 15.5917 72.6514 16.6725 72.6514 18.2239C72.6514 19.7578 71.7311 20.856 70.3245 20.856C68.9179 20.856 67.9976 19.7578 67.9976 18.2239Z" fill="#4C6379"/>
<path d="M77.0799 12.1759C77.7745 12.1759 78.3475 11.6181 78.3475 10.9034C78.3475 10.2061 77.7745 9.64832 77.0799 9.64832C76.3679 9.64832 75.8296 10.2061 75.8296 10.9034C75.8296 11.6181 76.3679 12.1759 77.0799 12.1759ZM76.0206 22.5477H78.1391V13.9365H76.0206V22.5477Z" fill="#4C6379"/>
<path d="M79.9954 26.5391H82.0619V21.3619C82.6003 22.2509 83.7637 22.7738 85.0487 22.7738C87.584 22.7738 89.0948 20.8215 89.06 18.137C89.0079 15.4352 87.4625 13.6746 85.0314 13.6746C83.729 13.6746 82.5482 14.2498 82.0272 15.2434L81.9057 13.936H79.9954V26.5391ZM82.1488 18.2416C82.1488 16.6902 83.0865 15.6095 84.5625 15.6095C86.0385 15.6095 86.9241 16.7077 86.9241 18.2416C86.9241 19.7756 86.0385 20.8564 84.5625 20.8564C83.0865 20.8564 82.1488 19.793 82.1488 18.2416Z" fill="#4C6379"/>
<path d="M89.5974 19.9674C89.6669 21.6757 90.9866 22.7738 93.0357 22.7738C95.05 22.7738 96.4219 21.6931 96.4219 20.0197C96.4219 18.782 95.6578 17.9453 94.2512 17.5967L92.7405 17.2306C92.098 17.0563 91.6638 16.8297 91.6638 16.2719C91.6638 15.6792 92.1327 15.2608 92.8968 15.2608C93.6956 15.2608 94.2165 15.7141 94.2165 16.4636H96.144C96.0746 14.7553 94.8069 13.6746 92.9489 13.6746C91.1082 13.6746 89.7363 14.7553 89.7363 16.3939C89.7363 17.5095 90.3788 18.4334 92.0285 18.8692L93.5219 19.2527C94.0776 19.4095 94.4249 19.671 94.4249 20.1591C94.4249 20.8389 93.7824 21.1527 93.001 21.1527C92.0632 21.1527 91.5249 20.7169 91.5249 19.9674H89.5974Z" fill="#4C6379"/>
<path d="M100.817 22.7736C101.98 22.7736 103.092 22.2332 103.595 21.4314L103.734 22.547H105.714V13.9358H103.595V18.4506C103.595 20.002 103.005 20.8736 101.616 20.8736C100.539 20.8736 99.7924 20.3506 99.7924 18.5726V13.9358H97.6738V19.3221C97.6738 21.3791 98.7852 22.7736 100.817 22.7736Z" fill="#4C6379"/>
<path d="M109.702 22.5472V17.5967C109.702 16.2021 110.518 15.5397 111.525 15.5397C112.532 15.5397 113.192 16.1847 113.192 17.4049V22.5472H115.258V17.6141C115.258 16.2021 116.057 15.5397 117.064 15.5397C118.089 15.5397 118.749 16.1847 118.749 17.4049V22.5472H120.798V16.9168C120.798 14.9296 119.704 13.6746 117.62 13.6746C116.318 13.6746 115.293 14.3021 114.876 15.3131C114.407 14.3021 113.47 13.6746 112.046 13.6746C111.039 13.6746 110.136 14.1452 109.632 14.9122L109.528 13.936H107.583V22.5472H109.702Z" fill="#4C6379"/>
<path d="M104.623 30.2428C104.938 30.2428 105.212 29.976 105.212 29.6592C105.212 29.334 104.938 29.0673 104.623 29.0673C104.299 29.0673 104.025 29.334 104.025 29.6592C104.025 29.976 104.299 30.2428 104.623 30.2428Z" fill="#4C6379"/>
<path d="M105.822 28.0923C105.822 29.3679 106.602 30.2266 107.74 30.2266C108.72 30.2266 109.468 29.6347 109.625 28.751H108.878C108.737 29.2428 108.305 29.5346 107.79 29.5346C107.059 29.5346 106.594 28.9677 106.594 28.084C106.594 27.1836 107.084 26.6334 107.807 26.6334C108.305 26.6334 108.737 26.9002 108.87 27.4254H109.617C109.484 26.5334 108.787 25.9331 107.815 25.9331C106.636 25.9331 105.822 26.8085 105.822 28.0923Z" fill="#4C6379"/>
<path d="M109.92 28.0831C109.92 29.3086 110.75 30.2257 111.996 30.2257C113.242 30.2257 114.072 29.3086 114.072 28.0831C114.072 26.8576 113.242 25.9406 111.996 25.9406C110.75 25.9406 109.92 26.8576 109.92 28.0831ZM110.709 28.0831C110.709 27.2494 111.215 26.6408 111.996 26.6408C112.777 26.6408 113.283 27.2494 113.283 28.0831C113.283 28.9168 112.777 29.5254 111.996 29.5254C111.215 29.5254 110.709 28.9168 110.709 28.0831Z" fill="#4C6379"/>
<path d="M115.52 30.134V27.683C115.52 27.041 115.918 26.6242 116.5 26.6242C117.056 26.6242 117.405 26.9827 117.405 27.6246V30.134H118.169V27.6913C118.169 27.041 118.559 26.6242 119.149 26.6242C119.697 26.6242 120.046 26.9827 120.046 27.6246V30.134H120.802V27.4579C120.802 26.5158 120.254 25.9406 119.323 25.9406C118.692 25.9406 118.202 26.249 118.003 26.7492C117.795 26.249 117.338 25.9406 116.674 25.9406C116.167 25.9406 115.719 26.174 115.495 26.5742L115.437 26.0573H114.739V30.134H115.52Z" fill="#4C6379"/>
</g>
<path fill-rule="evenodd" clip-rule="evenodd" d="M7.59155 18.33L7.59301 18.1781L7.59601 18.0261L7.60058 17.8742L7.60668 17.7222L7.61435 17.5703L7.62357 17.4183L7.63435 17.2664L7.64668 17.1145L7.66057 16.9627L7.67602 16.8109L7.69302 16.6593L7.71158 16.5078L7.73169 16.3563L7.75336 16.2051L7.77657 16.0539L7.80134 15.903L7.82767 15.7522L7.85554 15.6017L7.88496 15.4513L7.91593 15.3012L7.94845 15.1513L7.9825 15.0017L8.01811 14.8524L8.05524 14.7033L8.09391 14.5546L8.13412 14.4061L8.17586 14.258L8.21913 14.1103L8.26393 13.963L8.31024 13.816L8.35807 13.6694L8.40743 13.5232L8.45829 13.3775L8.51066 13.2322L8.56454 13.0874L8.61991 12.943L8.67678 12.7992L8.73514 12.6558L8.79499 12.513L8.85632 12.3706L8.91913 12.2288L8.98341 12.0876L9.04916 11.9471L9.11637 11.807L9.18503 11.6675L9.25515 11.5288L9.32671 11.3906L9.39971 11.2531L9.47414 11.1163L9.54999 10.9801L9.62728 10.8445L9.70596 10.7098L9.78606 10.5757L9.86755 10.4424L9.95045 10.3099L10.0347 10.1781L10.1204 10.0471L10.2074 9.91681L10.2958 9.78744L10.3855 9.65882L10.4766 9.53104L10.5691 9.40417L10.6628 9.27805L10.7579 9.15293L10.8543 9.02863L10.952 8.9052L11.051 8.78272L11.1513 8.66117L11.2529 8.54056L11.3557 8.4209L11.4598 8.3022L11.5652 8.18449L11.6718 8.06777L11.7796 7.95206L11.8887 7.83736L11.9989 7.72369L12.1104 7.61106L12.2231 7.49948L12.3369 7.38897L12.4519 7.27954L12.5681 7.1712L12.6854 7.06396L12.8039 6.95784L12.9235 6.85284L13.0442 6.74897L13.166 6.64626L13.289 6.54471L13.413 6.44433L13.538 6.34513L13.6642 6.24712L13.7913 6.15032L13.9196 6.05473L14.0488 5.96037L14.1791 5.86725L14.3103 5.77537L14.4426 5.68475L14.5758 5.59538L14.7099 5.50731L14.8451 5.42051L14.9812 5.33502L15.1182 5.25084L15.2561 5.16796L15.3949 5.08642L15.5345 5.00621L15.6751 4.92734L15.8165 4.84983L15.9588 4.77368L16.1018 4.69891L16.2457 4.6255L16.3905 4.5535L16.536 4.48288L16.6823 4.41367L16.8293 4.34588L16.9771 4.27951L17.1256 4.21457L17.2749 4.15106L17.4248 4.08901L17.5755 4.0284L17.7268 3.96924L17.8787 3.91157L18.0313 3.85535L18.1846 3.80063L18.3385 3.74739L18.4929 3.69564L18.6479 3.6454L18.8035 3.59666L18.9597 3.54944L19.1165 3.50374L19.2737 3.45956L19.4315 3.4169L19.5897 3.37579L19.7484 3.33622L19.9076 3.2982L20.0673 3.26173L20.2273 3.22682L20.3878 3.19346L20.5486 3.16168L20.7099 3.13147L20.8716 3.10283L21.0336 3.07577L21.1959 3.0503L21.3585 3.02641L21.5215 3.00412L21.6847 2.98342L21.8482 2.96432L22.012 2.94681L22.176 2.93093L22.3402 2.91664L22.5046 2.90396L22.6692 2.8929L23.5544 2.84216L23.6049 7.12326L23.6338 7.12293L23.756 7.12275L23.8783 7.12378L24.0005 7.12602L24.1229 7.12947L24.2452 7.13412L24.3676 7.13997L24.49 7.14704L24.6124 7.15533L24.7347 7.16481L24.8571 7.17551L24.9793 7.18742L25.1015 7.20055L25.2236 7.21488L25.3457 7.23043L25.4676 7.24718L25.5895 7.26515L25.7112 7.28433L25.8328 7.30472L25.9542 7.32631L26.0756 7.34911L26.1967 7.37312L26.3175 7.39835L26.4383 7.42477L26.5588 7.45239L26.6791 7.48121L26.7992 7.51124L26.919 7.54248L27.0386 7.5749L27.1578 7.60852L27.2769 7.64333L27.3956 7.67933L27.514 7.71652L27.6321 7.7549L27.7498 7.79446L27.8672 7.8352L27.9843 7.87712L28.101 7.9202L28.2173 7.96447L28.3332 8.0099L28.4487 8.0565L28.5637 8.10426L28.6783 8.15318L28.7926 8.20325L28.9063 8.25448L29.0196 8.30685L29.1324 8.36036L29.2447 8.41501L29.3566 8.4708L29.4678 8.52772L29.5786 8.58575L29.6888 8.64492L29.7985 8.7052L29.9076 8.76659L30.0162 8.82908L30.1242 8.89268L30.2315 8.95739L30.3383 9.02317L30.4444 9.09002L30.5499 9.158L30.6548 9.22697L30.759 9.29708L30.8626 9.36824L30.9654 9.44039L31.0676 9.51368L31.1691 9.58796L31.2698 9.66329L31.3699 9.73969L31.4692 9.81707L31.5678 9.89551L31.6656 9.97486L31.7627 10.0553L31.8589 10.1367L31.9544 10.2191L32.0492 10.3025L32.1431 10.3869L32.2361 10.4722L32.3284 10.5585L32.4198 10.6458L32.5104 10.7339L32.6001 10.823L32.689 10.9131L32.7769 11.0041L32.8641 11.0959L32.9502 11.1887L33.0355 11.2824L33.1199 11.377L33.2033 11.4724L33.2858 11.5687L33.3673 11.6659L33.448 11.7639L33.5276 11.8628L33.6063 11.9624L33.684 12.0629L33.7607 12.1643L33.8364 12.2664L33.9111 12.3694L33.9848 12.4731L34.0574 12.5776L34.1291 12.6828L34.1997 12.7888L34.2692 12.8956L34.3377 13.0032L34.405 13.1114L34.4714 13.2203L34.5366 13.33L34.6008 13.4403L34.6638 13.5514L34.7258 13.6631L34.7867 13.7755L34.8464 13.8885L34.905 14.0022L34.9624 14.1165L35.0188 14.2313L35.0739 14.3469L35.128 14.463L35.1809 14.5798L35.2326 14.6971L35.2831 14.8149L35.3324 14.9334L35.3806 15.0523L35.4275 15.1718L35.4733 15.2918L35.5178 15.4124L35.5611 15.5333L35.6033 15.6549L35.6442 15.7768L35.6839 15.8993L35.7223 16.0222L35.7596 16.1455L35.7955 16.2693L35.8302 16.3934L35.8637 16.518L35.8959 16.643L35.9268 16.7683L35.9565 16.894L35.9849 17.02L36.012 17.1464L36.0379 17.2731L36.0625 17.4002L36.0857 17.5275L36.1078 17.6551L36.1285 17.783L36.1479 17.9112L36.166 18.0396L36.1827 18.1682L36.1982 18.2972L36.2124 18.4262L36.2252 18.5555L36.2368 18.685L36.2471 18.8146L36.256 18.9445L36.2635 19.0744L36.2698 19.2045L36.2748 19.3348L36.2783 19.4651L36.2807 19.5955L36.2816 19.726L36.2812 19.8566L36.2795 19.9873L36.2764 20.118L36.272 20.2487L36.2662 20.3794L36.2592 20.5101L36.2508 20.6409L36.241 20.7716L36.2299 20.9023L36.2175 21.0329L36.2037 21.1635L36.1886 21.2939L36.1721 21.4244L36.1544 21.5547L36.1352 21.6849L36.1147 21.8149L36.0929 21.9448L36.0697 22.0746L36.0453 22.2042L36.0194 22.3336L35.9923 22.4628L35.9637 22.5918L35.9339 22.7207L35.9028 22.8492L35.8702 22.9775L35.8364 23.1055L35.8013 23.2333L35.7648 23.3608L35.7271 23.488L35.688 23.6149L35.6475 23.7414L35.6058 23.8677L35.5628 23.9935L35.5184 24.119L35.4728 24.2441L35.4259 24.3688L35.3776 24.4931L35.3281 24.617L35.2773 24.7405L35.2252 24.8635L35.1718 24.9861L35.1171 25.1081L35.0612 25.2298L35.004 25.3509L34.9455 25.4715L34.8857 25.5916L34.8248 25.7111L34.7625 25.8302L34.6991 25.9486L34.6343 26.0665L34.5684 26.1837L34.5012 26.3004L34.4328 26.4166L34.3632 26.532L34.2924 26.6469L34.2203 26.761L34.147 26.8746L34.0727 26.9874L33.997 27.0996L33.9202 27.2111L33.8422 27.3219L33.7631 27.4319L33.6828 27.5413L33.6013 27.6499L33.5187 27.7577L33.435 27.8647L33.3501 27.9711L33.2641 28.0766L33.177 28.1812L33.0887 28.2851L32.9994 28.3882L32.909 28.4905L32.8175 28.5919L32.7249 28.6924L32.6313 28.7921L32.5365 28.8909L32.4408 28.9888L32.3439 29.0858L32.2461 29.1819L32.1473 29.2771L32.0474 29.3714L31.9465 29.4647L31.8446 29.557L31.7417 29.6484L31.6379 29.7388L31.533 29.8283L31.4272 29.9167L31.3205 30.0041L31.2128 30.0906L31.1042 30.176L30.9946 30.2604L30.8841 30.3437L30.7728 30.426L30.6606 30.5072L30.5474 30.5873L30.4334 30.6664L30.3186 30.7444L30.2029 30.8213L30.0863 30.8971L29.969 30.9718L29.8509 31.0453L29.7319 31.1178L29.612 31.189L29.4915 31.2592L29.3702 31.3282L29.2481 31.3959L29.1253 31.4626L29.0017 31.528L28.8774 31.5923L28.7524 31.6554L28.6267 31.7173L28.5003 31.7779L28.3732 31.8374L28.2455 31.8956L28.1171 31.9526L27.9881 32.0083L27.8585 32.0628L27.7282 32.1161L27.5974 32.1681L27.466 32.2188L27.3339 32.2683L27.2013 32.3164L27.0681 32.3633L26.9345 32.4088L26.8004 32.4532L26.6656 32.4962L26.5304 32.5378L26.3947 32.5782L26.2586 32.6173L26.1219 32.655L25.9849 32.6915L25.8473 32.7265L25.7094 32.7602L25.5711 32.7926L25.4324 32.8236L25.2933 32.8534L25.1538 32.8817L25.014 32.9087L24.8739 32.9343L24.7335 32.9585L24.5927 32.9814L24.4516 33.0029L24.3102 33.023L24.1686 33.0417L24.0268 33.059L23.8846 33.075L23.7423 33.0895L23.5998 33.1027L23.4571 33.1145L23.3141 33.1248L23.1711 33.1338L23.0278 33.1414L22.8844 33.1475L22.7409 33.1522L22.5973 33.1555L22.4536 33.1574L22.3098 33.158L22.1659 33.157L22.022 33.1547L21.878 33.151L21.7341 33.1457L21.5901 33.1392L21.4461 33.1312L21.3022 33.1217L21.1582 33.1109L21.0144 33.0986L20.8706 33.0849L20.7268 33.0698L20.5832 33.0533L20.4397 33.0353L20.2962 33.0159L20.153 32.9951L20.0099 32.9729L19.867 32.9492L19.7242 32.9242L19.5816 32.8977L19.4392 32.8698L19.2971 32.8405L19.1552 32.8098L19.0135 32.7776L18.8722 32.7441L18.7311 32.7092L18.5902 32.6728L18.4497 32.6351L18.3096 32.596L18.1698 32.5554L18.0303 32.5135L17.8912 32.4702L17.7525 32.4254L17.6142 32.3794L17.4762 32.3318L17.3388 32.283L17.2017 32.2328L17.0651 32.1812L16.929 32.1282L16.7934 32.0739L16.6583 32.0182L16.5237 31.9611L16.3896 31.9027L16.256 31.843L16.123 31.7819L15.9906 31.7195L15.8587 31.6557L15.7275 31.5906L15.5968 31.5242L15.4668 31.4566L15.3375 31.3875L15.2087 31.3173L15.0806 31.2456L14.9533 31.1727L14.8266 31.0985L14.7006 31.023L14.5753 30.9463L14.4507 30.8683L14.3269 30.7891L14.2039 30.7085L14.0816 30.6268L13.9601 30.5437L13.8395 30.4595L13.7196 30.3741L13.6005 30.2874L13.4823 30.1996L13.3649 30.1105L13.2484 30.0202L13.1328 29.9288L13.0181 29.8361L12.9042 29.7423L12.7913 29.6474L12.6792 29.5513L12.5682 29.454L12.458 29.3556L12.3489 29.2561L12.2407 29.1555L12.1334 29.0537L12.0272 28.951L11.922 28.847L11.8178 28.742L11.7146 28.636L11.6125 28.5288L11.5114 28.4207L11.4114 28.3114L11.3125 28.2012L11.2146 28.0899L11.1178 27.9777L11.0222 27.8644L10.9277 27.7501L10.8343 27.6349L10.742 27.5187L10.6509 27.4015L10.5609 27.2834L10.4721 27.1644L10.3845 27.0444L10.2981 26.9235L10.2129 26.8017L10.1289 26.6791L10.0461 26.5556L9.96451 26.4311L9.88419 26.3059L9.8051 26.1798L9.72728 26.0528L9.65072 25.9251L9.57543 25.7965L9.50143 25.6672L9.42872 25.5371L9.3573 25.4062L9.2872 25.2745L9.2184 25.1421L9.15095 25.009L9.08481 24.8751L9.02002 24.7406L8.95658 24.6053L8.89449 24.4694L8.83376 24.3328L8.7744 24.1956L8.71643 24.0577L8.65984 23.9192L8.60464 23.7801L8.55083 23.6403L8.49844 23.5L8.44746 23.3591L8.39789 23.2177L8.34975 23.0758L8.30303 22.9332L8.25777 22.7902L8.21393 22.6466L8.17155 22.5026L8.13062 22.3581L8.09115 22.2131L8.05314 22.0678L8.01661 21.9219L7.98155 21.7757L7.94797 21.629L7.91588 21.4819L7.88527 21.3345L7.85616 21.1867L7.82854 21.0386L7.80242 20.8901L7.77782 20.7414L7.75472 20.5923L7.73313 20.4429L7.71306 20.2932L7.69452 20.1433L7.67749 19.9932L7.66199 19.8428L7.64803 19.6923L7.63559 19.5415L7.62469 19.3905L7.61533 19.2394L7.60751 19.0881L7.60122 18.9367L7.59648 18.7852L7.59329 18.6335L7.59165 18.4818L7.59155 18.33ZM22.222 7.21293L22.1876 4.29489L22.1549 4.29806L22.0048 4.31409L21.8551 4.33159L21.7055 4.35056L21.5564 4.37095L21.4075 4.39282L21.2588 4.41616L21.1105 4.44093L20.9624 4.46717L20.815 4.49478L20.6674 4.52394L20.5209 4.55441L20.3741 4.58641L20.2281 4.61977L20.0822 4.65462L19.937 4.6908L19.7922 4.72844L19.6478 4.76748L19.5038 4.80793L19.3605 4.84974L19.2174 4.89298L19.0751 4.93757L18.9332 4.98357L18.792 5.03085L18.651 5.07962L18.5108 5.12969L18.3713 5.18109L18.2322 5.2339L18.0938 5.28799L17.9561 5.34338L17.8189 5.4002L17.6823 5.45831L17.5464 5.51774L17.4112 5.57843L17.2768 5.64043L17.1431 5.70369L17.0098 5.76833L16.8775 5.83416L16.7459 5.90128L16.6151 5.96965L16.485 6.0393L16.3558 6.11013L16.2272 6.18227L16.0994 6.25567L15.9727 6.33011L15.8464 6.406L15.7212 6.48291L15.597 6.56101L15.4733 6.64039L15.3506 6.72093L15.2288 6.80265L15.1082 6.88533L14.988 6.96947L14.869 7.05451L14.7509 7.14073L14.6337 7.22813L14.5175 7.31657L14.4023 7.40607L14.2879 7.49683L14.1747 7.58845L14.0624 7.68128L13.9511 7.77511L13.8408 7.87004L13.7316 7.96587L13.6232 8.06292L13.5161 8.16083L13.4099 8.25987L13.3049 8.35975L13.2009 8.46071L13.0981 8.56258L12.9962 8.66545L12.8954 8.76939L12.7959 8.87404L12.6975 8.97959L12.6 9.08638L12.5039 9.19385L12.4089 9.30208L12.3149 9.41144L12.2223 9.52149L12.1306 9.63252L12.0403 9.74431L11.9511 9.85701L11.863 9.97047L11.7763 10.0847L11.6907 10.1997L11.6063 10.3157L11.5232 10.4322L11.4412 10.5496L11.3606 10.6677L11.2812 10.7866L11.203 10.9062L11.1261 11.0264L11.0505 11.1473L10.9761 11.269L10.9031 11.3912L10.8312 11.5142L10.7607 11.6379L10.6916 11.7621L10.6236 11.8869L10.557 12.0124L10.4918 12.1384L10.4278 12.2651L10.3652 12.3922L10.3039 12.5199L10.2439 12.6481L10.1853 12.777L10.128 12.9062L10.0721 13.036L10.0175 13.1663L9.96432 13.2969L9.91245 13.4281L9.86195 13.5598L9.81284 13.6918L9.76509 13.8243L9.71874 13.9571L9.67374 14.0904L9.63013 14.224L9.58792 14.358L9.5471 14.4922L9.50765 14.627L9.46962 14.7619L9.43298 14.8972L9.39773 15.0327L9.36388 15.1686L9.33144 15.3046L9.30041 15.441L9.27079 15.5775L9.24257 15.7143L9.21577 15.8513L9.19037 15.9885L9.16639 16.1258L9.14383 16.2633L9.12268 16.401L9.10294 16.5388L9.08463 16.6767L9.06772 16.8147L9.05224 16.9528L9.03817 17.091L9.02553 17.2293L9.01429 17.3675L9.00448 17.5059L8.99608 17.6443L8.9891 17.7826L8.98353 17.921L8.97938 18.0593L8.97665 18.1976L8.97532 18.3359L8.97541 18.4741L8.9769 18.6122L8.97981 18.7503L8.98412 18.8882L8.98984 19.026L8.99696 19.1637L9.00548 19.3012L9.0154 19.4386L9.02672 19.5758L9.03943 19.7128L9.05353 19.8497L9.06902 19.9863L9.08589 20.1227L9.10415 20.2588L9.12379 20.3947L9.14481 20.5304L9.16719 20.6656L9.19095 20.8007L9.21606 20.9355L9.24254 21.0698L9.27038 21.204L9.29957 21.3377L9.33011 21.4711L9.36199 21.6041L9.39521 21.7367L9.42977 21.869L9.46565 22.0007L9.50287 22.1321L9.54141 22.2631L9.58126 22.3936L9.62242 22.5236L9.66487 22.6532L9.70863 22.7822L9.75369 22.9108L9.80003 23.0388L9.84765 23.1663L9.89656 23.2933L9.94672 23.4198L9.99814 23.5456L10.0508 23.6709L10.1048 23.7956L10.1599 23.9197L10.2164 24.0433L10.274 24.1661L10.3329 24.2884L10.3929 24.41L10.4542 24.5309L10.5167 24.6512L10.5804 24.7708L10.6453 24.8897L10.7113 25.0079L10.7785 25.1253L10.8469 25.2421L10.9164 25.3581L10.9871 25.4734L11.0589 25.5879L11.1318 25.7016L11.2059 25.8146L11.2811 25.9267L11.3573 26.0381L11.4347 26.1486L11.5132 26.2584L11.5927 26.3673L11.6733 26.4754L11.7549 26.5825L11.8376 26.6889L11.9214 26.7943L12.0061 26.8989L12.0919 27.0026L12.1787 27.1054L12.2665 27.2073L12.3553 27.3082L12.4451 27.4083L12.5358 27.5073L12.6275 27.6055L12.7202 27.7026L12.8137 27.7989L12.9083 27.8941L13.0037 27.9884L13.1001 28.0816L13.1973 28.1739L13.2954 28.2652L13.3945 28.3555L13.4943 28.4447L13.595 28.5328L13.6966 28.62L13.7991 28.7061L13.9022 28.7911L14.0063 28.8752L14.1111 28.958L14.2168 29.0399L14.3231 29.1206L14.4303 29.2003L14.5382 29.2788L14.6469 29.3563L14.7562 29.4326L14.8664 29.5079L14.9771 29.5819L15.0887 29.6549L15.2008 29.7267L15.3137 29.7974L15.4272 29.8669L15.5413 29.9353L15.6562 30.0025L15.7715 30.0685L15.8876 30.1334L16.0041 30.1971L16.1214 30.2596L16.2391 30.3209L16.3574 30.3811L16.4763 30.44L16.5958 30.4977L16.7157 30.5543L16.8361 30.6096L16.957 30.6636L17.0784 30.7165L17.2003 30.7682L17.3227 30.8186L17.4454 30.8678L17.5687 30.9157L17.6923 30.9625L17.8163 31.008L17.9407 31.0521L18.0656 31.0951L18.1908 31.1369L18.3163 31.1773L18.4421 31.2165L18.5684 31.2545L18.6949 31.2912L18.8217 31.3266L18.9489 31.3608L19.0762 31.3936L19.2039 31.4253L19.3317 31.4556L19.4599 31.4847L19.5883 31.5124L19.7168 31.5389L19.8456 31.5642L19.9745 31.5881L20.1036 31.6108L20.2329 31.6322L20.3623 31.6522L20.4919 31.671L20.6216 31.6885L20.7513 31.7048L20.8811 31.7198L21.0111 31.7334L21.1411 31.7458L21.2712 31.7569L21.4013 31.7668L21.5314 31.7752L21.6615 31.7825L21.7916 31.7884L21.9217 31.7931L22.0518 31.7965L22.1819 31.7986L22.3118 31.7994L22.4417 31.799L22.5716 31.7972L22.7013 31.7943L22.8309 31.79L22.9605 31.7844L23.0899 31.7776L23.2191 31.7695L23.3482 31.7602L23.4771 31.7496L23.6059 31.7377L23.7344 31.7245L23.8627 31.7101L23.9908 31.6945L24.1187 31.6776L24.2463 31.6594L24.3736 31.64L24.5007 31.6193L24.6275 31.5974L24.7541 31.5743L24.8802 31.55L25.0061 31.5245L25.1316 31.4976L25.2568 31.4697L25.3816 31.4404L25.5061 31.4099L25.6302 31.3783L25.7538 31.3454L25.8771 31.3114L26 31.2762L26.1224 31.2397L26.2444 31.2021L26.3658 31.1634L26.4869 31.1234L26.6075 31.0823L26.7275 31.04L26.8472 30.9965L26.9662 30.9519L27.0848 30.9062L27.2028 30.8593L27.3202 30.8114L27.437 30.7622L27.5534 30.7119L27.6691 30.6605L27.7842 30.6081L27.8988 30.5545L28.0127 30.4998L28.126 30.4441L28.2387 30.3872L28.3507 30.3293L28.462 30.2703L28.5728 30.2102L28.6827 30.1491L28.792 30.087L28.9006 30.0238L29.0087 29.9596L29.1157 29.8944L29.2223 29.8281L29.3279 29.7608L29.4329 29.6926L29.5372 29.6233L29.6407 29.5529L29.7432 29.4819L29.845 29.4096L29.9461 29.3365L30.0464 29.2624L30.1459 29.1873L30.2444 29.1115L30.3424 29.0345L30.4392 28.9567L30.5353 28.878L30.6306 28.7984L30.725 28.7178L30.8184 28.6365L30.911 28.5542L31.0027 28.4711L31.0935 28.3872L31.1834 28.3023L31.2723 28.2168L31.3604 28.1302L31.4475 28.0429L31.5337 27.9549L31.6189 27.866L31.7031 27.7764L31.7863 27.686L31.8687 27.5946L31.95 27.5028L32.0304 27.41L32.1097 27.3166L32.188 27.2224L32.2653 27.1276L32.3416 27.032L32.417 26.9357L32.4912 26.8389L32.5645 26.7412L32.6366 26.6429L32.7078 26.544L32.778 26.4443L32.8468 26.3443L32.9149 26.2434L32.9817 26.142L33.0475 26.04L33.1124 25.9373L33.176 25.8342L33.2385 25.7305L33.3 25.626L33.3602 25.5213L33.4195 25.4159L33.4777 25.31L33.5347 25.2037L33.5906 25.0967L33.6454 24.9892L33.6989 24.8817L33.7515 24.7732L33.8029 24.6644L33.8531 24.5552L33.9022 24.4456L33.9501 24.3356L33.9969 24.2253L34.0425 24.1143L34.087 24.003L34.1303 23.8917L34.1724 23.7795L34.2133 23.6674L34.2532 23.5547L34.2918 23.4417L34.3293 23.3284L34.3655 23.2151L34.4006 23.101L34.4345 22.987L34.4672 22.8726L34.4987 22.7581L34.5291 22.6431L34.5581 22.5282L34.5861 22.4128L34.6129 22.2972L34.6385 22.1816L34.6628 22.0656L34.686 21.9497L34.7079 21.8333L34.7287 21.7172L34.7482 21.6007L34.7666 21.484L34.7837 21.3674L34.7997 21.2505L34.8145 21.1338L34.828 21.0166L34.8403 20.8998L34.8515 20.7826L34.8614 20.6656L34.8702 20.5483L34.8777 20.4315L34.8841 20.3142L34.8892 20.1969L34.8931 20.0799L34.8959 19.9631L34.8974 19.8458L34.8978 19.7288L34.897 19.6119L34.8949 19.4952L34.8917 19.3784L34.8872 19.262L34.8816 19.1452L34.8749 19.029L34.8668 18.9127L34.8577 18.7968L34.8474 18.6807L34.8359 18.5651L34.8232 18.4495L34.8093 18.3342L34.7943 18.219L34.7781 18.1042L34.7607 17.9893L34.7422 17.8749L34.7226 17.7609L34.7017 17.6469L34.6797 17.5332L34.6566 17.42L34.6323 17.3067L34.607 17.1942L34.5803 17.0816L34.5528 16.9697L34.5239 16.8577L34.494 16.7465L34.4629 16.6355L34.4308 16.5247L34.3975 16.4145L34.3632 16.3048L34.3276 16.1951L34.2912 16.0863L34.2534 15.9775L34.2148 15.8695L34.1749 15.7616L34.134 15.6545L34.092 15.5476L34.049 15.4413L34.0049 15.3356L33.9599 15.2304L33.9135 15.1254L33.8665 15.0213L33.8181 14.9173L33.7689 14.8143L33.7186 14.7117L33.6672 14.6095L33.6149 14.5081L33.5615 14.4071L33.5071 14.3066L33.452 14.2071L33.3956 14.1078L33.3384 14.0094L33.28 13.9114L33.221 13.8144L33.1606 13.7176L33.0996 13.6217L33.0375 13.5263L32.9745 13.4317L32.9107 13.3379L32.8458 13.2446L32.78 13.152L32.7134 13.0602L32.6459 12.9692L32.5775 12.8787L32.5082 12.7891L32.438 12.7001L32.367 12.612L32.2951 12.5246L32.2223 12.4379L32.1487 12.352L32.0743 12.2669L31.9992 12.1826L31.9232 12.0991L31.8462 12.0163L31.7688 11.9346L31.6901 11.8533L31.6111 11.7732L31.5311 11.6937L31.4505 11.6152L31.3688 11.5373L31.2868 11.4606L31.2037 11.3845L31.12 11.3093L31.0358 11.2351L30.9508 11.1617L30.8648 11.089L30.7784 11.0174L30.6913 10.9467L30.6035 10.8769L30.515 10.8079L30.4261 10.7401L30.3362 10.6728L30.2459 10.6068L30.155 10.5416L30.0633 10.4773L29.9713 10.414L29.8783 10.3515L29.7852 10.2902L29.6912 10.2297L29.5968 10.1702L29.5017 10.1116L29.4062 10.054L29.3101 9.99745L29.2137 9.94197L29.1164 9.88717L29.0191 9.83367L28.9209 9.78099L28.8224 9.72938L28.7235 9.67883L28.624 9.62919L28.5241 9.58053L28.4238 9.53301L28.323 9.4864L28.222 9.44093L28.1205 9.39636L28.0153 9.35149L27.9164 9.31049L27.8135 9.26896L27.7107 9.22871L27.6071 9.18923L27.5036 9.15103L27.3995 9.11374L27.2953 9.07759L27.1905 9.04235L27.0857 9.00832L26.9805 8.97528L26.875 8.94329L26.7695 8.91245L26.6635 8.88255L26.5571 8.85369L26.4509 8.82601L26.3444 8.79938L26.2373 8.77372L26.1305 8.74925L26.0232 8.72575L25.9159 8.7034L25.8083 8.68205L25.7008 8.66183L25.593 8.64266L25.4852 8.6246L25.3769 8.60754L25.269 8.59162L25.1608 8.57675L25.0524 8.56295L24.9441 8.55023L24.8358 8.53861L24.7273 8.52804L24.6189 8.51855L24.5103 8.51013L24.4016 8.50278L24.2933 8.49652L24.1849 8.49133L24.0761 8.4872L23.9679 8.48415L23.8595 8.48217L23.7511 8.48126L23.6426 8.48141L23.6209 8.48166L23.6551 11.3785L23.7166 11.3782L23.7958 11.3786L23.875 11.3798L23.9543 11.3819L24.0337 11.3847L24.113 11.3883L24.1924 11.3927L24.2718 11.3979L24.3512 11.4039L24.4306 11.4106L24.5101 11.4182L24.5894 11.4265L24.6688 11.4357L24.7482 11.4456L24.8275 11.4563L24.9067 11.4679L24.9859 11.4802L25.0651 11.4933L25.1442 11.5072L25.2232 11.522L25.3021 11.5375L25.3809 11.5538L25.4596 11.5708L25.5382 11.5887L25.6167 11.6074L25.695 11.6269L25.7732 11.6472L25.8512 11.6682L25.9292 11.6901L26.0069 11.7127L26.0845 11.7361L26.1619 11.7603L26.2391 11.7853L26.3161 11.8111L26.393 11.8377L26.4695 11.8651L26.5459 11.8932L26.622 11.922L26.698 11.9518L26.7736 11.9822L26.849 12.0134L26.9242 12.0455L26.9991 12.0782L27.0737 12.1118L27.148 12.1461L27.2219 12.1812L27.2957 12.217L27.3691 12.2536L27.4422 12.291L27.515 12.3291L27.5874 12.3679L27.6595 12.4076L27.7312 12.4479L27.8025 12.489L27.8736 12.5308L27.9443 12.5734L28.0145 12.6167L28.0843 12.6607L28.1538 12.7055L28.2228 12.751L28.2915 12.7971L28.3597 12.844L28.4275 12.8917L28.4949 12.94L28.5618 12.989L28.6282 13.0388L28.6943 13.0892L28.7597 13.1404L28.8248 13.1922L28.8894 13.2446L28.9535 13.2979L29.017 13.3517L29.0801 13.4062L29.1427 13.4614L29.2048 13.5173L29.2663 13.5738L29.3273 13.6309L29.3877 13.6888L29.4476 13.7472L29.507 13.8063L29.5658 13.866L29.624 13.9264L29.6817 13.9874L29.7387 14.049L29.7951 14.1112L29.851 14.1741L29.9063 14.2374L29.9609 14.3015L30.015 14.366L30.0684 14.4312L30.1212 14.497L30.1734 14.5633L30.2249 14.6302L30.2758 14.6977L30.326 14.7657L30.3755 14.8343L30.4244 14.9034L30.4726 14.973L30.5202 15.0432L30.567 15.1139L30.6131 15.1851L30.6586 15.2569L30.7033 15.3291L30.7474 15.4018L30.7908 15.475L30.8333 15.5487L30.8752 15.6228L30.9164 15.6975L30.9568 15.7726L30.9965 15.8482L31.0354 15.9242L31.0736 16.0007L31.111 16.0776L31.1477 16.1549L31.1836 16.2326L31.2187 16.3108L31.253 16.3893L31.2866 16.4683L31.3194 16.5476L31.3514 16.6274L31.3826 16.7075L31.4129 16.7879L31.4425 16.8687L31.4713 16.9499L31.4993 17.0315L31.5265 17.1133L31.5528 17.1956L31.5783 17.278L31.603 17.3608L31.6268 17.444L31.6499 17.5274L31.672 17.6112L31.6934 17.6952L31.7138 17.7794L31.7334 17.8639L31.7522 17.9487L31.7701 18.0338L31.7872 18.119L31.8034 18.2045L31.8187 18.2903L31.8332 18.3763L31.8468 18.4624L31.8595 18.5488L31.8713 18.6353L31.8823 18.722L31.8924 18.8089L31.9015 18.896L31.9098 18.9831L31.9173 19.0705L31.9238 19.158L31.9294 19.2456L31.9341 19.3333L31.938 19.4211L31.9409 19.5091L31.943 19.5971L31.9441 19.6852L31.9443 19.7735L31.9436 19.8617L31.9421 19.95L31.9396 20.0383L31.9362 20.1268L31.9319 20.2152L31.9267 20.3036L31.9205 20.3921L31.9135 20.4806L31.9055 20.569L31.8967 20.6575L31.8869 20.7458L31.8762 20.8343L31.8646 20.9226L31.8521 21.0109L31.8386 21.0991L31.8243 21.1872L31.809 21.2753L31.7928 21.3633L31.7757 21.4512L31.7577 21.539L31.7387 21.6267L31.719 21.7142L31.6982 21.8016L31.6765 21.8888L31.6539 21.976L31.6305 22.0629L31.6061 22.1497L31.5808 22.2362L31.5546 22.3226L31.5275 22.4089L31.4994 22.4949L31.4705 22.5806L31.4407 22.6662L31.41 22.7515L31.3784 22.8366L31.3458 22.9214L31.3125 23.006L31.2782 23.0902L31.243 23.1743L31.2069 23.258L31.17 23.3414L31.1322 23.4245L31.0934 23.5073L31.0539 23.5898L31.0134 23.6719L30.972 23.7537L30.9298 23.8352L30.8868 23.9162L30.8428 23.9969L30.7981 24.0772L30.7525 24.1572L30.706 24.2367L30.6586 24.3159L30.6105 24.3946L30.5615 24.4729L30.5116 24.5508L30.4609 24.6282L30.4093 24.7052L30.357 24.7817L30.3039 24.8578L30.2499 24.9334L30.1951 25.0085L30.1395 25.0831L30.0831 25.1572L30.0259 25.2308L29.9679 25.3039L29.9091 25.3765L29.8495 25.4485L29.7892 25.52L29.728 25.591L29.6661 25.6614L29.6034 25.7312L29.54 25.8005L29.4758 25.8691L29.411 25.9373L29.3453 26.0047L29.2789 26.0716L29.2117 26.1379L29.1439 26.2036L29.0753 26.2686L29.0061 26.333L28.9361 26.3968L28.8654 26.4598L28.794 26.5223L28.7219 26.5841L28.6492 26.6452L28.5757 26.7057L28.5017 26.7654L28.4268 26.8245L28.3514 26.8828L28.2754 26.9405L28.1987 26.9974L28.1213 27.0536L28.0434 27.1092L27.9648 27.1639L27.8856 27.218L27.8057 27.2712L27.7253 27.3238L27.6443 27.3755L27.5627 27.4265L27.4805 27.4767L27.3979 27.5262L27.3145 27.5748L27.2307 27.6227L27.1463 27.6697L27.0614 27.716L26.9759 27.7615L26.8899 27.8062L26.8034 27.85L26.7164 27.8929L26.6289 27.9351L26.5409 27.9765L26.4524 28.0169L26.3634 28.0566L26.274 28.0954L26.1841 28.1333L26.0938 28.1703L26.0031 28.2066L25.9119 28.2419L25.8203 28.2764L25.7282 28.3099L25.6358 28.3426L25.543 28.3743L25.4498 28.4053L25.3562 28.4352L25.2623 28.4643L25.168 28.4925L25.0733 28.5197L24.9783 28.5461L24.8829 28.5715L24.7873 28.596L24.6913 28.6195L24.5951 28.6422L24.4984 28.6639L24.4016 28.6846L24.3045 28.7044L24.2071 28.7233L24.1095 28.7412L24.0115 28.7582L23.9134 28.7742L23.8151 28.7892L23.7165 28.8033L23.6176 28.8164L23.5187 28.8286L23.4195 28.8398L23.3202 28.85L23.2207 28.8592L23.121 28.8675L23.0212 28.8748L22.9212 28.8811L22.8211 28.8864L22.7209 28.8907L22.6206 28.894L22.5202 28.8964L22.4197 28.8977L22.319 28.8981L22.2184 28.8975L22.1178 28.8959L22.017 28.8933L21.9162 28.8896L21.8154 28.885L21.7145 28.8794L21.6137 28.8728L21.5129 28.8652L21.4121 28.8566L21.3113 28.847L21.2105 28.8364L21.1098 28.8248L21.0091 28.8122L20.9085 28.7985L20.808 28.7839L20.7076 28.7683L20.6072 28.7517L20.507 28.734L20.4069 28.7155L20.3069 28.6958L20.2071 28.6752L20.1073 28.6536L20.0078 28.631L19.9085 28.6073L19.8093 28.5827L19.7103 28.5571L19.6115 28.5305L19.5129 28.5029L19.4146 28.4743L19.3164 28.4448L19.2185 28.4142L19.1209 28.3826L19.0235 28.3501L18.9264 28.3166L18.8296 28.2821L18.7331 28.2466L18.6368 28.2102L18.5409 28.1727L18.4454 28.1344L18.3501 28.095L18.2552 28.0547L18.1607 28.0134L18.0665 27.9711L17.9727 27.9279L17.8793 27.8838L17.7862 27.8387L17.6936 27.7927L17.6013 27.7457L17.5096 27.6978L17.4183 27.6489L17.3274 27.5991L17.2369 27.5484L17.1469 27.4967L17.0574 27.4442L16.9684 27.3907L16.8798 27.3363L16.7918 27.281L16.7043 27.2248L16.6173 27.1677L16.5308 27.1096L16.4449 27.0508L16.3595 26.991L16.2747 26.9304L16.1905 26.8689L16.1068 26.8065L16.0237 26.7432L15.9413 26.6791L15.8594 26.6141L15.7782 26.5483L15.6975 26.4817L15.6175 26.4141L15.5382 26.3458L15.4595 26.2766L15.3814 26.2067L15.304 26.1359L15.2274 26.0644L15.1514 25.992L15.076 25.9188L15.0014 25.8448L14.9276 25.7701L14.8544 25.6945L14.782 25.6183L14.7102 25.5412L14.6393 25.4634L14.5691 25.3848L14.4997 25.3056L14.431 25.2255L14.3631 25.1448L14.296 25.0633L14.2297 24.9811L14.1642 24.8983L14.0995 24.8147L14.0356 24.7304L13.9726 24.6454L13.9103 24.5599L13.8489 24.4735L13.7884 24.3866L13.7287 24.299L13.6699 24.2108L13.612 24.122L13.5549 24.0324L13.4987 23.9423L13.4434 23.8516L13.389 23.7603L13.3355 23.6684L13.2829 23.5759L13.2312 23.4829L13.1805 23.3892L13.1307 23.2951L13.0818 23.2004L13.0338 23.1051L12.9868 23.0093L12.9408 22.913L12.8957 22.8162L12.8516 22.7188L12.8084 22.621L12.7662 22.5227L12.725 22.4239L12.6848 22.3247L12.6456 22.225L12.6074 22.1248L12.5702 22.0243L12.534 21.9233L12.4988 21.8218L12.4646 21.72L12.4315 21.6178L12.3993 21.5152L12.3682 21.4123L12.3382 21.3089L12.3092 21.2052L12.2812 21.1011L12.2543 20.9967L12.2284 20.892L12.2036 20.787L12.1799 20.6816L12.1572 20.576L12.1356 20.4701L12.115 20.3639L12.0955 20.2574L12.0771 20.1507L12.0598 20.0438L12.0436 19.9366L12.0285 19.8292L12.0144 19.7216L12.0015 19.6138L11.9896 19.5058L11.9789 19.3976L11.9692 19.2892L11.9607 19.1807L11.9532 19.0721L11.9469 18.9633L11.9417 18.8544L11.9375 18.7454L11.9345 18.6362L11.9327 18.527L11.9319 18.4177L11.9322 18.3083L11.9337 18.1989L11.9363 18.0894L11.94 17.9799L11.9449 17.8703L11.9508 17.7608L11.9579 17.6512L11.9661 17.5417L11.9754 17.4321L11.9859 17.3227L11.9975 17.2131L12.0102 17.1038L12.0241 16.9944L12.039 16.8851L12.0551 16.7759L12.0724 16.6668L12.0907 16.5579L12.1102 16.449L12.1308 16.3403L12.1525 16.2317L12.1754 16.1233L12.1994 16.015L12.2244 15.9069L12.2507 15.799L12.278 15.6913L12.3064 15.5838L12.336 15.4765L12.3667 15.3695L12.3985 15.2627L12.4314 15.1561L12.4654 15.0498L12.5005 14.9438L12.5368 14.8381L12.5741 14.7327L12.6125 14.6276L12.6521 14.5228L12.6927 14.4183L12.7344 14.3142L12.7772 14.2104L12.8211 14.1071L12.866 14.004L12.9121 13.9014L12.9592 13.7991L13.0074 13.6973L13.0567 13.5959L13.107 13.4949L13.1584 13.3943L13.2109 13.2943L13.2644 13.1946L13.3189 13.0955L13.3745 12.9968L13.4311 12.8986L13.4888 12.801L13.5475 12.7038L13.6073 12.6072L13.668 12.5111L13.7298 12.4155L13.7926 12.3205L13.8563 12.2261L13.9212 12.1323L13.9869 12.039L14.0537 11.9463L14.1215 11.8543L14.1902 11.7628L14.2599 11.672L14.3306 11.5818L14.4023 11.4923L14.4748 11.4035L14.5484 11.3153L14.6229 11.2277L14.6983 11.1409L14.7746 11.0548L14.8519 10.9694L14.9301 10.8846L15.0092 10.8007L15.0892 10.7174L15.1701 10.6349L15.2519 10.5531L15.3345 10.4721L15.4181 10.3919L15.5025 10.3124L15.5878 10.2338L15.6739 10.1559L15.7609 10.0789L15.8486 10.0027L15.9373 9.92727L16.0267 9.85269L16.1169 9.77895L16.208 9.70604L16.2999 9.63404L16.3925 9.56287L16.4859 9.49261L16.5801 9.42319L16.675 9.35468L16.7707 9.28707L16.8672 9.22038L16.9644 9.15459L17.0622 9.08979L17.1609 9.02583L17.2602 8.96284L17.3602 8.9008L17.4609 8.83971L17.5623 8.77958L17.6643 8.72042L17.7671 8.66223L17.8704 8.60501L17.9744 8.5488L18.079 8.49358L18.1843 8.43936L18.2901 8.38615L18.3966 8.33395L18.5036 8.28278L18.6113 8.23264L18.7195 8.18352L18.8283 8.13545L18.9376 8.08843L19.0475 8.04247L19.1579 7.99755L19.2687 7.95371L19.3801 7.91093L19.492 7.86923L19.6044 7.82862L19.7173 7.78909L19.8306 7.75065L19.9444 7.7133L20.0586 7.67707L20.1733 7.64193L20.2883 7.60791L20.4038 7.57501L20.5197 7.54323L20.6359 7.51257L20.7526 7.48304L20.8696 7.45465L20.9869 7.4274L21.1046 7.40129L21.2226 7.37632L21.3409 7.35251L21.4596 7.32985L21.5785 7.30835L21.6978 7.28801L21.8173 7.26884L21.937 7.25083L22.057 7.234L22.1772 7.21833L22.222 7.21293ZM22.2728 11.5095L22.2382 8.58086L22.1397 8.59468L22.0337 8.61062L21.9277 8.62762L21.8224 8.64559L21.7169 8.66466L21.612 8.68471L21.5073 8.70578L21.4029 8.72784L21.2988 8.75095L21.1949 8.77508L21.0913 8.80021L20.9882 8.82633L20.8851 8.85349L20.7862 8.88061L20.6807 8.9107L20.5788 8.94079L20.4774 8.97186L20.3766 9.00385L20.2759 9.03689L20.1757 9.07092L20.0759 9.10586L19.9766 9.14171L19.8777 9.17862L19.7792 9.21636L19.6811 9.25517L19.5838 9.2948L19.4865 9.3355L19.3899 9.37703L19.2938 9.41948L19.1984 9.46283L19.1032 9.50716L19.0085 9.55241L18.9147 9.59842L18.821 9.64548L18.7283 9.6933L18.6357 9.74219L18.544 9.79168L18.4525 9.84238L18.3619 9.89362L18.2719 9.94583L18.1824 9.99896L18.0935 10.0528L18.0051 10.1077L17.9176 10.1632L17.8305 10.2197L17.7442 10.2769L17.6585 10.3349L17.5734 10.3938L17.4889 10.4535L17.4053 10.5137L17.3221 10.575L17.2397 10.637L17.158 10.6998L17.0771 10.7632L16.9967 10.8276L16.9172 10.8925L16.8383 10.9582L16.7601 11.0248L16.6829 11.0919L16.6062 11.1599L16.5302 11.2286L16.4551 11.2978L16.3808 11.3678L16.3071 11.4386L16.2343 11.5098L16.1623 11.5818L16.091 11.6546L16.0205 11.7279L15.9508 11.8019L15.882 11.8765L15.814 11.9517L15.7467 12.0275L15.6802 12.1041L15.6148 12.181L15.55 12.2587L15.4861 12.337L15.423 12.4157L15.3609 12.495L15.2994 12.575L15.239 12.6555L15.1793 12.7365L15.1206 12.818L15.0627 12.9001L15.0057 12.9826L14.9496 13.0656L14.8944 13.1492L14.84 13.2333L14.7866 13.3177L14.7342 13.4027L14.6825 13.4882L14.6318 13.574L14.582 13.6604L14.5331 13.7471L14.4852 13.8341L14.4382 13.9218L14.392 14.0098L14.3469 14.098L14.3027 14.1869L14.2594 14.276L14.2171 14.3653L14.1757 14.4552L14.1352 14.5453L14.0957 14.6358L14.0571 14.7266L14.0196 14.8177L13.983 14.9091L13.9473 15.0009L13.9126 15.0929L13.8789 15.1852L13.8461 15.2778L13.8143 15.3705L13.7835 15.4635L13.7536 15.5568L13.7247 15.6504L13.6969 15.744L13.6699 15.8379L13.644 15.932L13.619 16.0263L13.5951 16.1208L13.5721 16.2154L13.5501 16.3103L13.529 16.4051L13.509 16.5003L13.49 16.5955L13.4719 16.6907L13.4548 16.7862L13.4387 16.8817L13.4236 16.9774L13.4095 17.0729L13.3964 17.1687L13.3843 17.2645L13.3731 17.3604L13.363 17.4563L13.3538 17.5522L13.3456 17.6482L13.3384 17.744L13.3322 17.8401L13.327 17.936L13.3228 18.0319L13.3195 18.1278L13.3173 18.2236L13.316 18.3194L13.3157 18.4152L13.3163 18.5108L13.318 18.6064L13.3206 18.7019L13.3242 18.7972L13.3288 18.8926L13.3343 18.9877L13.3408 19.0827L13.3483 19.1777L13.3568 19.2724L13.3662 19.367L13.3765 19.4614L13.3879 19.5557L13.4001 19.6498L13.4134 19.7437L13.4276 19.8374L13.4427 19.9308L13.4588 20.0241L13.4758 20.1172L13.4937 20.2099L13.5126 20.3025L13.5324 20.3947L13.5532 20.4868L13.5748 20.5784L13.5974 20.6699L13.6209 20.7611L13.6454 20.8519L13.6707 20.9424L13.6969 21.0327L13.724 21.1226L13.7521 21.2122L13.781 21.3014L13.8109 21.3903L13.8416 21.4787L13.8732 21.5669L13.9056 21.6546L13.939 21.742L13.9732 21.8289L14.0082 21.9155L14.0442 22.0017L14.0809 22.0874L14.1186 22.1726L14.157 22.2575L14.1964 22.3419L14.2365 22.4259L14.2775 22.5094L14.3193 22.5924L14.3619 22.675L14.4053 22.7571L14.4495 22.8386L14.4945 22.9197L14.5404 23.0003L14.5869 23.0803L14.6343 23.1598L14.6825 23.2389L14.7314 23.3173L14.7811 23.3952L14.8316 23.4727L14.8827 23.5494L14.9348 23.6257L14.9874 23.7013L15.0408 23.7764L15.095 23.8509L15.1499 23.9248L15.2054 23.9981L15.2618 24.0709L15.3187 24.1429L15.3764 24.2144L15.4347 24.2853L15.4938 24.3555L15.5535 24.425L15.6139 24.4941L15.6749 24.5623L15.7366 24.63L15.7989 24.6969L15.8618 24.7632L15.9254 24.8288L15.9896 24.8938L16.0544 24.9581L16.1199 25.0217L16.1859 25.0846L16.2525 25.1467L16.3197 25.2082L16.3875 25.269L16.4558 25.329L16.5247 25.3883L16.5942 25.4469L16.6642 25.5048L16.7347 25.5619L16.8057 25.6183L16.8773 25.6739L16.9494 25.7288L17.022 25.783L17.095 25.8363L17.1686 25.8889L17.2426 25.9407L17.3172 25.9918L17.3922 26.0422L17.4676 26.0916L17.5435 26.1404L17.6198 26.1884L17.6966 26.2355L17.7737 26.2819L17.8513 26.3274L17.9292 26.3721L18.0077 26.4161L18.0864 26.4592L18.1656 26.5016L18.2451 26.5431L18.3249 26.5837L18.4051 26.6237L18.4858 26.6627L18.5666 26.701L18.6478 26.7384L18.7294 26.775L18.8112 26.8107L18.8933 26.8455L18.9758 26.8796L19.0585 26.9128L19.1414 26.9452L19.2247 26.9767L19.3082 27.0074L19.3919 27.0373L19.4759 27.0662L19.5601 27.0944L19.6445 27.1216L19.7292 27.1481L19.814 27.1736L19.899 27.1983L19.9842 27.2222L20.0696 27.2452L20.1551 27.2674L20.2408 27.2886L20.3267 27.309L20.4127 27.3285L20.4988 27.3472L20.585 27.3651L20.6713 27.382L20.7579 27.398L20.8443 27.4133L20.931 27.4277L21.0177 27.4411L21.1044 27.4537L21.1912 27.4655L21.278 27.4764L21.365 27.4864L21.4519 27.4956L21.5388 27.5038L21.6258 27.5113L21.7128 27.5178L21.7998 27.5235L21.8867 27.5283L21.9736 27.5323L22.0605 27.5354L22.1474 27.5377L22.2341 27.5391L22.3209 27.5396L22.4075 27.5393L22.4941 27.5381L22.5807 27.5361L22.667 27.5332L22.7534 27.5295L22.8395 27.5249L22.9256 27.5195L23.0115 27.5132L23.0974 27.5061L23.183 27.4981L23.2685 27.4894L23.3539 27.4797L23.4391 27.4693L23.5241 27.458L23.6089 27.4459L23.6935 27.433L23.7779 27.4192L23.862 27.4046L23.9461 27.3892L24.0298 27.3729L24.1133 27.356L24.1967 27.3381L24.2796 27.3194L24.3623 27.3L24.4447 27.2797L24.527 27.2587L24.6089 27.2369L24.6905 27.2142L24.7718 27.1908L24.8528 27.1666L24.9335 27.1417L25.0138 27.1159L25.0939 27.0894L25.1735 27.0621L25.2529 27.0341L25.3319 27.0053L25.4105 26.9757L25.4887 26.9454L25.5665 26.9143L25.6441 26.8825L25.7212 26.85L25.7978 26.8167L25.8741 26.7828L25.9499 26.7481L26.0254 26.7126L26.1005 26.6764L26.1749 26.6397L26.2492 26.602L26.3228 26.5638L26.3961 26.5248L26.4688 26.4852L26.5411 26.4449L26.613 26.4039L26.6842 26.3622L26.7551 26.3198L26.8255 26.2769L26.8953 26.2332L26.9647 26.1889L27.0334 26.144L27.1017 26.0984L27.1696 26.0521L27.2368 26.0052L27.3034 25.9579L27.3697 25.9097L27.4352 25.8611L27.5003 25.8118L27.5649 25.7618L27.6286 25.7114L27.6921 25.6603L27.7549 25.6086L27.8169 25.5564L27.8786 25.5034L27.9396 25.4502L27.9999 25.3964L28.0598 25.3417L28.1189 25.2868L28.1775 25.2313L28.2355 25.1752L28.2927 25.1187L28.3494 25.0615L28.4055 25.0039L28.4609 24.9458L28.5156 24.8872L28.5697 24.8281L28.6232 24.7685L28.6759 24.7086L28.7282 24.6479L28.7796 24.587L28.8303 24.5256L28.8805 24.4636L28.9299 24.4015L28.9787 24.3386L29.0268 24.2755L29.0742 24.2118L29.1208 24.1479L29.1667 24.0836L29.2121 24.0187L29.2567 23.9535L29.3005 23.888L29.3438 23.822L29.3861 23.7558L29.4279 23.6891L29.4689 23.622L29.5092 23.5547L29.5487 23.4871L29.5877 23.4189L29.6256 23.3508L29.6631 23.282L29.6997 23.2131L29.7355 23.1439L29.7707 23.0742L29.805 23.0046L29.8388 22.9343L29.8715 22.8641L29.9039 22.7933L29.9351 22.7226L29.9658 22.6513L29.9957 22.58L30.0248 22.5085L30.0532 22.4366L30.0808 22.3645L30.1076 22.2925L30.1338 22.2199L30.159 22.1473L30.1835 22.0746L30.2073 22.0016L30.2303 21.9284L30.2526 21.8551L30.274 21.7817L30.2947 21.7081L30.3146 21.6344L30.3338 21.5605L30.3521 21.4865L30.3697 21.4126L30.3865 21.3382L30.4025 21.2639L30.4179 21.1896L30.4323 21.1152L30.446 21.0407L30.4589 20.9659L30.4711 20.8914L30.4825 20.8167L30.4931 20.7419L30.5029 20.6672L30.5119 20.5924L30.5202 20.5174L30.5277 20.4429L30.5345 20.3678L30.5405 20.293L30.5456 20.2183L30.5501 20.1435L30.5537 20.0687L30.5566 19.9941L30.5587 19.9192L30.5599 19.8448L30.5606 19.77L30.5603 19.6955L30.5594 19.621L30.5577 19.5468L30.5552 19.4725L30.5519 19.3983L30.5479 19.3244L30.5432 19.2503L30.5377 19.1764L30.5315 19.1029L30.5245 19.0291L30.5167 18.9558L30.5082 18.8824L30.4989 18.8093L30.489 18.7364L30.4783 18.6634L30.4668 18.5908L30.4546 18.5185L30.4417 18.4462L30.4281 18.3742L30.4136 18.3022L30.3985 18.2306L30.3828 18.1593L30.3662 18.088L30.3489 18.017L30.331 17.9465L30.3123 17.8758L30.293 17.8057L30.2729 17.7356L30.2521 17.6661L30.2307 17.5966L30.2085 17.5274L30.1857 17.4586L30.1622 17.3901L30.1379 17.3217L30.1131 17.2538L30.0875 17.1862L30.0613 17.1189L30.0345 17.0519L30.0069 16.9851L29.9788 16.9189L29.9498 16.8528L29.9204 16.7873L29.8903 16.7221L29.8595 16.6571L29.828 16.5924L29.796 16.5284L29.7633 16.4645L29.7301 16.4012L29.6962 16.3383L29.6616 16.2755L29.6265 16.2134L29.5908 16.1516L29.5544 16.0902L29.5174 16.0292L29.4801 15.9687L29.4419 15.9085L29.4033 15.8489L29.364 15.7897L29.3242 15.731L29.2838 15.6726L29.2429 15.6147L29.2015 15.5574L29.1593 15.5004L29.1168 15.444L29.0737 15.388L29.0302 15.3326L28.9859 15.2775L28.9412 15.223L28.896 15.1689L28.8503 15.1154L28.8042 15.0625L28.7574 15.0099L28.7103 14.9579L28.6626 14.9064L28.6145 14.8556L28.5658 14.8051L28.5168 14.7553L28.4671 14.7058L28.4171 14.6571L28.3668 14.6089L28.3159 14.5611L28.2644 14.5139L28.2127 14.4674L28.1605 14.4214L28.1077 14.3757L28.0549 14.331L28.0014 14.2865L27.9476 14.2428L27.8934 14.1997L27.8387 14.1569L27.7837 14.1149L27.7285 14.0736L27.6727 14.0327L27.6164 13.9923L27.5602 13.9528L27.5032 13.9136L27.4463 13.8754L27.3888 13.8375L27.331 13.8002L27.2728 13.7635L27.2145 13.7276L27.1556 13.6921L27.0966 13.6574L27.0371 13.6231L26.9777 13.5897L26.9178 13.5568L26.8575 13.5245L26.797 13.4928L26.7364 13.4619L26.6754 13.4314L26.6141 13.4016L26.5527 13.3725L26.4912 13.3441L26.429 13.3161L26.3671 13.289L26.3047 13.2625L26.242 13.2365L26.1793 13.2112L26.1165 13.1867L26.0534 13.1627L25.9899 13.1393L25.9265 13.1167L25.8628 13.0947L25.7989 13.0733L25.7351 13.0526L25.671 13.0326L25.6069 13.0132L25.5423 12.9944L25.4779 12.9764L25.4133 12.9589L25.3486 12.9422L25.2839 12.926L25.2188 12.9106L25.1538 12.8958L25.0889 12.8817L25.0237 12.8682L24.9583 12.8553L24.8933 12.8433L24.8278 12.8317L24.7625 12.8209L24.6969 12.8107L24.6317 12.8012L24.5659 12.7923L24.5006 12.7842L24.4351 12.7766L24.3696 12.7697L24.3041 12.7635L24.2385 12.7579L24.1732 12.7529L24.1075 12.7487L24.0421 12.745L23.9769 12.7421L23.9112 12.7397L23.846 12.7381L23.7808 12.7371L23.7156 12.7367L23.6711 12.7369L23.7048 15.5982L23.725 15.5983L23.7625 15.5988L23.8 15.5997L23.8376 15.6009L23.8752 15.6027L23.9128 15.6047L23.9505 15.6072L23.9883 15.61L24.026 15.6133L24.0639 15.6169L24.1017 15.621L24.1395 15.6253L24.1774 15.6302L24.2152 15.6354L24.2531 15.641L24.291 15.6471L24.3289 15.6535L24.3668 15.6604L24.4047 15.6676L24.4425 15.6752L24.4803 15.6833L24.5181 15.6917L24.556 15.7006L24.5936 15.7099L24.6314 15.7195L24.6691 15.7296L24.7067 15.74L24.7443 15.7509L24.7818 15.7621L24.8192 15.7738L24.8566 15.7859L24.894 15.7984L24.9312 15.8113L24.9684 15.8246L25.0055 15.8383L25.0425 15.8524L25.0794 15.8669L25.1162 15.8818L25.1529 15.8971L25.1896 15.9128L25.2261 15.929L25.2625 15.9455L25.2988 15.9624L25.335 15.9797L25.371 15.9974L25.4069 16.0155L25.4426 16.0341L25.4783 16.0529L25.5138 16.0723L25.5491 16.092L25.5843 16.1121L25.6193 16.1325L25.6541 16.1534L25.6888 16.1747L25.7233 16.1963L25.7577 16.2184L25.7918 16.2408L25.8258 16.2636L25.8596 16.2868L25.8932 16.3104L25.9266 16.3344L25.9598 16.3587L25.9928 16.3834L26.0256 16.4085L26.0581 16.4339L26.0905 16.4598L26.1226 16.486L26.1544 16.5125L26.1862 16.5395L26.2176 16.5668L26.2487 16.5945L26.2797 16.6225L26.3104 16.6509L26.3408 16.6797L26.3709 16.7088L26.4009 16.7382L26.4305 16.768L26.4598 16.7982L26.489 16.8287L26.5178 16.8595L26.5463 16.8907L26.5745 16.9223L26.6025 16.9541L26.6302 16.9863L26.6575 17.0188L26.6846 17.0516L26.7113 17.0848L26.7378 17.1183L26.7639 17.1521L26.7897 17.1863L26.8152 17.2207L26.8404 17.2555L26.8651 17.2905L26.8897 17.3259L26.9138 17.3616L26.9376 17.3976L26.9611 17.4338L26.9843 17.4704L27.007 17.5073L27.0294 17.5444L27.0515 17.5819L27.0731 17.6195L27.0945 17.6575L27.1154 17.6958L27.136 17.7343L27.1563 17.7731L27.176 17.8121L27.1955 17.8514L27.2145 17.8909L27.2332 17.9308L27.2515 17.9708L27.2694 18.0111L27.2869 18.0517L27.3039 18.0924L27.3206 18.1334L27.3369 18.1747L27.3527 18.2161L27.3682 18.2578L27.3832 18.2997L27.3978 18.3419L27.412 18.3842L27.4257 18.4267L27.439 18.4694L27.4519 18.5123L27.4644 18.5554L27.4764 18.5988L27.488 18.6422L27.4992 18.6859L27.5098 18.7298L27.5201 18.7738L27.5299 18.8179L27.5393 18.8623L27.5482 18.9068L27.5566 18.9514L27.5646 18.9962L27.5721 19.0412L27.5792 19.0862L27.5858 19.1314L27.5919 19.1768L27.5976 19.2222L27.6028 19.2679L27.6075 19.3136L27.6117 19.3593L27.6155 19.4053L27.6188 19.4513L27.6216 19.4974L27.624 19.5437L27.6258 19.59L27.6272 19.6364L27.6281 19.6828L27.6285 19.7293L27.6284 19.7759L27.6278 19.8226L27.6268 19.8693L27.6252 19.9161L27.6231 19.9629L27.6206 20.0098L27.6176 20.0567L27.614 20.1036L27.6099 20.1506L27.6054 20.1976L27.6004 20.2446L27.5948 20.2916L27.5888 20.3386L27.5823 20.3857L27.5753 20.4327L27.5677 20.4797L27.5597 20.5267L27.5511 20.5736L27.5421 20.6206L27.5325 20.6675L27.5224 20.7145L27.5119 20.7613L27.5008 20.8081L27.4892 20.8549L27.4771 20.9017L27.4646 20.9483L27.4515 20.9949L27.4379 21.0413L27.4238 21.0878L27.4092 21.1342L27.3941 21.1804L27.3785 21.2266L27.3624 21.2727L27.3457 21.3187L27.3285 21.3646L27.311 21.4103L27.2928 21.456L27.2742 21.5015L27.2551 21.5469L27.2355 21.5921L27.2153 21.6373L27.1947 21.6822L27.1735 21.727L27.1519 21.7717L27.1298 21.8162L27.1072 21.8605L27.0841 21.9047L27.0604 21.9487L27.0364 21.9925L27.0118 22.0361L26.9868 22.0796L26.9612 22.1229L26.9352 22.1658L26.9086 22.2087L26.8817 22.2513L26.8542 22.2937L26.8262 22.3359L26.7978 22.3778L26.7689 22.4196L26.7395 22.461L26.7096 22.5023L26.6793 22.5433L26.6485 22.584L26.6173 22.6244L26.5856 22.6647L26.5534 22.7046L26.5208 22.7443L26.4877 22.7837L26.4542 22.8228L26.4201 22.8616L26.3857 22.9001L26.3508 22.9383L26.3155 22.9762L26.2798 23.0138L26.2435 23.0512L26.2069 23.0882L26.1698 23.1248L26.1324 23.1612L26.0944 23.1972L26.0561 23.2328L26.0173 23.2681L25.9782 23.3031L25.9386 23.3378L25.8986 23.372L25.8582 23.4059L25.8173 23.4395L25.7761 23.4727L25.7345 23.5054L25.6925 23.5378L25.6502 23.5699L25.6074 23.6016L25.5643 23.6328L25.5207 23.6637L25.4768 23.6942L25.4325 23.7242L25.3879 23.7539L25.3429 23.7831L25.2975 23.812L25.2518 23.8404L25.2057 23.8684L25.1593 23.8959L25.1125 23.923L25.0654 23.9497L25.0179 23.9759L24.9702 24.0017L24.9221 24.0271L24.8737 24.052L24.825 24.0764L24.776 24.1004L24.7266 24.1239L24.6769 24.147L24.627 24.1695L24.5767 24.1916L24.5262 24.2133L24.4754 24.2344L24.4243 24.255L24.3729 24.2752L24.3212 24.2949L24.2693 24.3141L24.2171 24.3328L24.1647 24.351L24.112 24.3686L24.0591 24.3859L24.0059 24.4024L23.9526 24.4186L23.8989 24.4343L23.8451 24.4494L23.791 24.464L23.7367 24.478L23.6822 24.4916L23.6275 24.5045L23.5726 24.517L23.5175 24.5289L23.4622 24.5404L23.4067 24.5512L23.3511 24.5615L23.2953 24.5713L23.2392 24.5806L23.1831 24.5892L23.1268 24.5973L23.0704 24.6049L23.0138 24.6119L22.9571 24.6184L22.9002 24.6242L22.8432 24.6296L22.7862 24.6343L22.7289 24.6385L22.6716 24.6421L22.6142 24.6452L22.5566 24.6477L22.499 24.6496L22.4413 24.6509L22.3835 24.6516L22.3257 24.6519L22.2678 24.6515L22.2098 24.6505L22.1517 24.6489L22.0937 24.6468L22.0355 24.6441L21.9773 24.6407L21.9191 24.6369L21.8609 24.6324L21.8027 24.6273L21.7444 24.6216L21.6862 24.6154L21.6279 24.6085L21.5697 24.6011L21.5114 24.5931L21.4532 24.5845L21.395 24.5753L21.3369 24.5655L21.2787 24.5551L21.2207 24.5441L21.1626 24.5326L21.1046 24.5204L21.0467 24.5076L20.9889 24.4942L20.9311 24.4803L20.8734 24.4658L20.8158 24.4507L20.7583 24.4349L20.7009 24.4186L20.6436 24.4017L20.5864 24.3842L20.5293 24.3661L20.4724 24.3474L20.4155 24.3282L20.3589 24.3083L20.3024 24.2879L20.246 24.2668L20.1898 24.2452L20.1337 24.223L20.0778 24.2002L20.0221 24.1768L19.9666 24.1529L19.9113 24.1283L19.8561 24.1032L19.8012 24.0775L19.7464 24.0512L19.6919 24.0244L19.6376 23.997L19.5835 23.969L19.5297 23.9404L19.4761 23.9113L19.4227 23.8816L19.3696 23.8514L19.3167 23.8205L19.2642 23.7892L19.2118 23.7573L19.1598 23.7247L19.108 23.6917L19.0565 23.6581L19.0053 23.6239L18.9545 23.5892L18.904 23.554L18.8537 23.5182L18.8037 23.4819L18.7541 23.445L18.7048 23.4076L18.6559 23.3697L18.6072 23.3312L18.559 23.2923L18.511 23.2528L18.4635 23.2128L18.4163 23.1722L18.3695 23.1312L18.3231 23.0896L18.277 23.0476L18.2313 23.005L18.186 22.9619L18.1412 22.9183L18.0966 22.8743L18.0526 22.8297L18.009 22.7847L17.9657 22.7392L17.9229 22.6932L17.8805 22.6467L17.8386 22.5998L17.7971 22.5524L17.7561 22.5045L17.7155 22.4563L17.6753 22.4074L17.6357 22.3582L17.5965 22.3085L17.5578 22.2584L17.5195 22.2079L17.4818 22.1569L17.4445 22.1055L17.4078 22.0537L17.3715 22.0014L17.3357 21.9487L17.3004 21.8956L17.2657 21.8421L17.2315 21.7882L17.1977 21.734L17.1646 21.6793L17.1319 21.6242L17.0998 21.5688L17.0682 21.513L17.0372 21.4568L17.0067 21.4003L16.9768 21.3434L16.9474 21.2861L16.9186 21.2285L16.8904 21.1706L16.8627 21.1122L16.8356 21.0536L16.8091 20.9947L16.7832 20.9354L16.7579 20.8757L16.7331 20.8159L16.7089 20.7556L16.6854 20.6951L16.6624 20.6343L16.6402 20.5732L16.6184 20.5118L16.5973 20.4502L16.5767 20.3883L16.5569 20.326L16.5376 20.2636L16.519 20.2009L16.5009 20.1379L16.4836 20.0747L16.4669 20.0113L16.4507 19.9476L16.4353 19.8837L16.4205 19.8197L16.4063 19.7553L16.3928 19.6908L16.38 19.6261L16.3678 19.5612L16.3562 19.4961L16.3453 19.4309L16.3351 19.3655L16.3255 19.2998L16.3166 19.2341L16.3085 19.1682L16.3009 19.1022L16.2941 19.0359L16.2879 18.9696L16.2824 18.9032L16.2775 18.8366L16.2734 18.7699L16.2699 18.7032L16.2671 18.6363L16.265 18.5693L16.2636 18.5022L16.263 18.4352L16.2629 18.3679L16.2636 18.3006L16.265 18.2333L16.267 18.166L16.2698 18.0985L16.2733 18.0311L16.2775 17.9636L16.2823 17.8961L16.2879 17.8285L16.2941 17.761L16.3011 17.6935L16.3088 17.626L16.3172 17.5584L16.3262 17.491L16.336 17.4235L16.3465 17.3561L16.3578 17.2887L16.3696 17.2213L16.3822 17.154L16.3956 17.0868L16.4097 17.0196L16.4244 16.9526L16.4398 16.8856L16.4559 16.8187L16.4728 16.7519L16.4904 16.6852L16.5086 16.6186L16.5276 16.5522L16.5472 16.4858L16.5676 16.4196L16.5887 16.3535L16.6104 16.2876L16.6329 16.2219L16.6561 16.1563L16.6799 16.0908L16.7045 16.0256L16.7298 15.9606L16.7557 15.8957L16.7824 15.831L16.8097 15.7665L16.8377 15.7023L16.8665 15.6382L16.8959 15.5744L16.926 15.5108L16.9567 15.4475L16.9882 15.3844L17.0203 15.3216L17.0531 15.2591L17.0866 15.1968L17.1208 15.1348L17.1556 15.073L17.1911 15.0115L17.2272 14.9504L17.2641 14.8896L17.3015 14.829L17.3397 14.7689L17.3785 14.7089L17.418 14.6493L17.458 14.5901L17.4988 14.5312L17.5402 14.4727L17.5822 14.4146L17.6249 14.3568L17.6682 14.2993L17.7121 14.2423L17.7567 14.1856L17.8019 14.1294L17.8477 14.0735L17.8941 14.0181L17.9411 13.963L17.9887 13.9083L18.037 13.8541L18.0858 13.8003L18.1353 13.7471L18.1853 13.6942L18.236 13.6417L18.2872 13.5897L18.339 13.5382L18.3914 13.4871L18.4443 13.4365L18.4978 13.3864L18.5519 13.3368L18.6065 13.2877L18.6617 13.239L18.7175 13.191L18.7737 13.1433L18.8306 13.0963L18.8879 13.0497L18.9458 13.0036L19.0041 12.9582L19.0631 12.9132L19.1225 12.8688L19.1825 12.8249L19.2429 12.7816L19.3039 12.7389L19.3653 12.6967L19.4273 12.6551L19.4897 12.6141L19.5526 12.5737L19.616 12.5338L19.6798 12.4946L19.7441 12.4559L19.8088 12.4179L19.8741 12.3804L19.9397 12.3436L20.0057 12.3074L20.0722 12.2718L20.1391 12.2369L20.2065 12.2025L20.2742 12.1689L20.3424 12.1358L20.4109 12.1035L20.4799 12.0717L20.5492 12.0407L20.6189 12.0103L20.689 11.9805L20.7594 11.9514L20.8302 11.923L20.9014 11.8953L20.9729 11.8682L21.0447 11.8419L21.1169 11.8162L21.1894 11.7912L21.2622 11.767L21.3354 11.7434L21.4087 11.7205L21.4825 11.6984L21.5565 11.6769L21.6308 11.6563L21.7054 11.6362L21.7802 11.6169L21.8553 11.5983L21.9307 11.5805L22.0063 11.5635L22.0821 11.5471L22.1582 11.5315L22.2345 11.5166L22.2728 11.5095ZM23.2104 17.0121L22.3402 17.2208L22.2891 12.8936L22.2481 12.9028L22.1863 12.9175L22.1246 12.9327L22.0634 12.9485L22.0022 12.9648L21.9415 12.9818L21.8807 12.9995L21.8205 13.0175L21.7602 13.0363L21.7006 13.0555L21.6409 13.0754L21.5816 13.0959L21.5225 13.1169L21.4637 13.1384L21.4054 13.1604L21.3472 13.1832L21.2893 13.2064L21.2318 13.2301L21.1743 13.2545L21.1176 13.2792L21.0609 13.3047L21.0047 13.3305L20.9486 13.357L20.8931 13.3839L20.8377 13.4115L20.7828 13.4394L20.7283 13.4679L20.6741 13.4969L20.6202 13.5264L20.5667 13.5564L20.5135 13.587L20.461 13.6179L20.4084 13.6495L20.3564 13.6814L20.3049 13.7139L20.2537 13.7468L20.2029 13.7802L20.1525 13.8141L20.1025 13.8484L20.0529 13.8831L20.0038 13.9183L19.955 13.954L19.9067 13.9901L19.8588 14.0266L19.8113 14.0636L19.7643 14.1009L19.7178 14.1387L19.6716 14.177L19.6259 14.2157L19.5807 14.2547L19.536 14.2942L19.4916 14.334L19.4478 14.3742L19.4044 14.4149L19.3615 14.4559L19.3191 14.4972L19.277 14.5391L19.2355 14.5811L19.1946 14.6236L19.1541 14.6664L19.1139 14.7097L19.0744 14.7532L19.0354 14.797L18.9968 14.8413L18.9588 14.8857L18.9212 14.9307L18.8843 14.9757L18.8477 15.0213L18.8118 15.067L18.7762 15.1132L18.7412 15.1596L18.7068 15.2062L18.6728 15.2531L18.6395 15.3004L18.6066 15.348L18.5742 15.3957L18.5424 15.4438L18.5111 15.492L18.4804 15.5405L18.4501 15.5894L18.4205 15.6384L18.3913 15.6878L18.3628 15.7371L18.3347 15.7869L18.3071 15.8369L18.2802 15.887L18.2538 15.9373L18.228 15.9878L18.2026 16.0387L18.1779 16.0895L18.1537 16.1407L18.1301 16.1919L18.107 16.2434L18.0845 16.295L18.0625 16.3469L18.0411 16.3987L18.0203 16.4508L18.0001 16.5031L17.9803 16.5554L17.9612 16.6078L17.9426 16.6605L17.9246 16.7132L17.9071 16.7661L17.8902 16.819L17.8739 16.8721L17.8581 16.9252L17.843 16.9783L17.8284 17.0317L17.8143 17.0851L17.8008 17.1386L17.7879 17.1921L17.7755 17.2456L17.7637 17.2993L17.7526 17.353L17.7419 17.4067L17.7318 17.4604L17.7223 17.5143L17.7134 17.5681L17.705 17.6219L17.6972 17.6758L17.6899 17.7296L17.6833 17.7835L17.6772 17.8373L17.6716 17.8911L17.6666 17.9451L17.6621 17.9988L17.6583 18.0527L17.655 18.1065L17.6522 18.1601L17.65 18.2138L17.6483 18.2674L17.6473 18.321L17.6466 18.3745L17.6467 18.428L17.6473 18.4813L17.6484 18.5347L17.65 18.5879L17.6522 18.641L17.655 18.6941L17.6583 18.747L17.6621 18.7998L17.6665 18.8525L17.6714 18.9051L17.6768 18.9577L17.6828 19.01L17.6893 19.0623L17.6963 19.1143L17.704 19.1664L17.712 19.2181L17.7206 19.2698L17.7298 19.3214L17.7394 19.3728L17.7496 19.424L17.7603 19.4749L17.7715 19.5259L17.7832 19.5765L17.7955 19.627L17.8081 19.6772L17.8214 19.7274L17.8351 19.7772L17.8493 19.827L17.864 19.8765L17.8792 19.9258L17.8949 19.9748L17.911 20.0236L17.9277 20.0723L17.9449 20.1206L17.9625 20.1687L17.9805 20.2167L17.9991 20.2643L18.0181 20.3117L18.0376 20.3589L18.0574 20.4057L18.0779 20.4524L18.0987 20.4988L18.12 20.5448L18.1418 20.5906L18.1639 20.6361L18.1866 20.6815L18.2096 20.7264L18.2331 20.771L18.257 20.8154L18.2814 20.8594L18.3061 20.9032L18.3313 20.9468L18.3569 20.9898L18.3829 21.0327L18.4093 21.0752L18.4361 21.1174L18.4633 21.1593L18.4909 21.2008L18.5189 21.2421L18.5472 21.2828L18.576 21.3234L18.6051 21.3636L18.6346 21.4034L18.6645 21.4429L18.6947 21.4821L18.7253 21.5208L18.7563 21.5592L18.7876 21.5973L18.8192 21.6349L18.8513 21.6723L18.8836 21.7093L18.9162 21.7458L18.9493 21.782L18.9825 21.8177L19.0162 21.8533L19.0502 21.8883L19.0844 21.9229L19.1191 21.9572L19.1539 21.9911L19.1891 22.0246L19.2246 22.0576L19.2604 22.0903L19.2965 22.1226L19.3328 22.1544L19.3694 22.1858L19.4063 22.2169L19.4434 22.2475L19.4808 22.2778L19.5186 22.3076L19.5564 22.3369L19.5946 22.3658L19.6331 22.3944L19.6717 22.4225L19.7106 22.4502L19.7497 22.4775L19.789 22.5043L19.8286 22.5307L19.8683 22.5566L19.9083 22.5821L19.9486 22.6073L19.9889 22.6319L20.0294 22.6561L20.0703 22.6799L20.1111 22.7032L20.1522 22.7261L20.1936 22.7486L20.2351 22.7705L20.2767 22.7921L20.3184 22.8131L20.3605 22.8338L20.4025 22.854L20.4448 22.8738L20.4872 22.8931L20.5296 22.9119L20.5724 22.9303L20.6152 22.9483L20.658 22.9658L20.701 22.9828L20.7441 22.9994L20.7875 23.0155L20.8306 23.0312L20.8742 23.0464L20.9176 23.0611L20.9612 23.0755L21.0049 23.0893L21.0487 23.1027L21.0925 23.1156L21.1363 23.1281L21.1804 23.1401L21.2244 23.1517L21.2684 23.1628L21.3125 23.1734L21.3566 23.1836L21.4007 23.1933L21.445 23.2026L21.4892 23.2114L21.5335 23.2198L21.5777 23.2277L21.622 23.2352L21.6663 23.2422L21.7107 23.2488L21.7548 23.2548L21.7992 23.2605L21.8434 23.2657L21.8877 23.2705L21.932 23.2747L21.9762 23.2786L22.0204 23.282L22.0645 23.2849L22.1086 23.2874L22.1526 23.2895L22.1966 23.2911L22.2407 23.2923L22.2845 23.293L22.3283 23.2933L22.372 23.2932L22.4157 23.2927L22.4594 23.2916L22.503 23.2902L22.5463 23.2883L22.5896 23.286L22.633 23.2833L22.6761 23.2801L22.7192 23.2765L22.7621 23.2725L22.805 23.2681L22.8477 23.2632L22.8902 23.258L22.9328 23.2523L22.9751 23.2461L23.0172 23.2396L23.0594 23.2327L23.1013 23.2254L23.1431 23.2176L23.1847 23.2094L23.2263 23.2009L23.2675 23.1919L23.3085 23.1826L23.3496 23.1728L23.3905 23.1627L23.4311 23.1522L23.4716 23.1413L23.5118 23.13L23.552 23.1183L23.5919 23.1062L23.6315 23.0938L23.6712 23.0809L23.7104 23.0677L23.7495 23.0542L23.7884 23.0403L23.8271 23.026L23.8657 23.0113L23.9039 22.9963L23.9419 22.9809L23.9797 22.9652L24.0173 22.949L24.0548 22.9326L24.0918 22.9158L24.1288 22.8987L24.1654 22.8813L24.2017 22.8635L24.238 22.8454L24.2737 22.8269L24.3095 22.8081L24.3449 22.789L24.38 22.7696L24.4148 22.7499L24.4494 22.7298L24.4838 22.7094L24.5178 22.6887L24.5515 22.6677L24.585 22.6464L24.6182 22.6249L24.6512 22.603L24.6839 22.5808L24.7162 22.5583L24.7483 22.5356L24.78 22.5126L24.8115 22.4893L24.8427 22.4657L24.8736 22.4419L24.9042 22.4177L24.9345 22.3933L24.9644 22.3688L24.9941 22.3439L25.0234 22.3188L25.0524 22.2934L25.0811 22.2678L25.1095 22.2418L25.1376 22.2158L25.1652 22.1895L25.1927 22.1629L25.2198 22.136L25.2466 22.1091L25.2731 22.0819L25.2991 22.0543L25.3249 22.0268L25.3504 21.9988L25.3754 21.9708L25.4002 21.9425L25.4246 21.914L25.4486 21.8854L25.4725 21.8565L25.4957 21.8275L25.5188 21.7982L25.5415 21.7689L25.5638 21.7394L25.5859 21.7096L25.6074 21.6798L25.6287 21.6496L25.6497 21.6194L25.6703 21.5891L25.6905 21.5585L25.7104 21.5279L25.7298 21.4971L25.749 21.4662L25.7678 21.4351L25.7862 21.4039L25.8044 21.3726L25.822 21.3412L25.8394 21.3096L25.8564 21.2779L25.873 21.2462L25.8892 21.2143L25.9051 21.1823L25.9207 21.1502L25.9359 21.118L25.9507 21.0858L25.9651 21.0534L25.9791 21.021L25.9929 20.9884L26.0062 20.9559L26.0192 20.9231L26.0318 20.8906L26.0441 20.8575L26.0558 20.825L26.0674 20.792L26.0786 20.7589L26.0893 20.7261L26.0997 20.693L26.1097 20.66L26.1195 20.6267L26.1287 20.5938L26.1378 20.5604L26.1463 20.5275L26.1545 20.4941L26.1624 20.4608L26.1698 20.4277L26.1769 20.3946L26.1837 20.3611L26.1902 20.328L26.1962 20.2946L26.2019 20.2615L26.2072 20.2283L26.2122 20.1951L26.2168 20.1618L26.221 20.1286L26.225 20.0956L26.2285 20.0626L26.2317 20.0293L26.2346 19.9964L26.237 19.9633L26.2392 19.9303L26.241 19.8974L26.2424 19.8646L26.2435 19.832L26.2442 19.7991L26.2447 19.7663L26.2447 19.7337L26.2444 19.7012L26.2438 19.6688L26.2429 19.6364L26.2416 19.6039L26.2399 19.572L26.238 19.5394L26.2357 19.5077L26.233 19.4758L26.2301 19.4436L26.2268 19.4119L26.2232 19.3804L26.2192 19.3485L26.215 19.3173L26.2104 19.2858L26.2056 19.2548L26.2003 19.2235L26.1948 19.1925L26.1889 19.1617L26.1828 19.131L26.1763 19.1002L26.1695 19.0698L26.1625 19.0394L26.1551 19.0093L26.1475 18.9793L26.1394 18.9492L26.1313 18.9196L26.1227 18.8898L26.1138 18.8604L26.1047 18.8311L26.0953 18.802L26.0855 18.773L26.0755 18.744L26.0653 18.7155L26.0547 18.6871L26.0438 18.6586L26.0327 18.6305L26.0213 18.6024L26.0098 18.5748L25.9978 18.547L25.9857 18.5197L25.9732 18.4925L25.9606 18.4654L25.9477 18.4386L25.9344 18.4119L25.921 18.3854L25.9073 18.3591L25.8934 18.3331L25.8792 18.3072L25.8648 18.2815L25.8501 18.2561L25.8353 18.2308L25.8202 18.2058L25.8048 18.1809L25.7893 18.1564L25.7735 18.132L25.7575 18.1078L25.7412 18.0838L25.7248 18.0602L25.7082 18.0366L25.6913 18.0133L25.6743 17.9903L25.657 17.9675L25.6396 17.9449L25.6219 17.9225L25.604 17.9004L25.586 17.8785L25.5678 17.8568L25.5494 17.8354L25.5309 17.8142L25.5121 17.7933L25.4931 17.7726L25.474 17.7521L25.4548 17.7319L25.4353 17.712L25.4157 17.6922L25.396 17.6728L25.376 17.6536L25.356 17.6347L25.3356 17.6159L25.3154 17.5975L25.2949 17.5792L25.2743 17.5613L25.2534 17.5436L25.2325 17.5262L25.2115 17.509L25.1903 17.4921L25.169 17.4754L25.1476 17.459L25.1261 17.4429L25.1044 17.427L25.0826 17.4114L25.0608 17.3961L25.0388 17.3809L25.0167 17.3662L24.9945 17.3516L24.9722 17.3373L24.9499 17.3233L24.9273 17.3095L24.9048 17.296L24.8823 17.2828L24.8595 17.2698L24.8367 17.2571L24.8139 17.2447L24.791 17.2325L24.768 17.2206L24.745 17.209L24.7218 17.1975L24.6987 17.1865L24.6754 17.1757L24.6521 17.1651L24.6288 17.1548L24.6053 17.1447L24.5821 17.135L24.5585 17.1255L24.535 17.1163L24.5115 17.1073L24.4879 17.0986L24.4644 17.0902L24.4407 17.082L24.4171 17.0741L24.3936 17.0665L24.3699 17.0591L24.3461 17.0519L24.3226 17.0451L24.2987 17.0385L24.2752 17.0322L24.2515 17.0262L24.2278 17.0203L24.2041 17.0148L24.1804 17.0095L24.1567 17.0045L24.1331 16.9997L24.1095 16.9952L24.086 16.9909L24.0623 16.9869L24.0389 16.9832L24.0152 16.9797L23.9918 16.9764L23.9683 16.9734L23.9449 16.9707L23.9216 16.9682L23.8982 16.966L23.875 16.9639L23.8517 16.9622L23.8285 16.9607L23.8053 16.9594L23.7822 16.9584L23.7594 16.9576L23.7363 16.957L23.7135 16.9567L23.6906 16.9567L23.6679 16.9569L23.6451 16.9573L23.6226 16.9579L23.6 16.9588L23.5776 16.9598L23.5551 16.9612L23.5329 16.9627L23.5107 16.9645L23.4886 16.9665L23.4666 16.9687L23.4446 16.9711L23.4229 16.9738L23.4011 16.9767L23.3795 16.9798L23.3579 16.9831L23.3366 16.9866L23.3152 16.9903L23.2941 16.9943L23.2729 16.9984L23.252 17.0027L23.2311 17.0073L23.2104 17.0121Z" fill="#E6C89B"/>
</svg>
