<svg width="126" height="36" viewBox="0 0 126 36" fill="none" xmlns="http://www.w3.org/2000/svg">
<g opacity="0.5">
<path d="M69.7803 10.8101C69.7803 10.4744 69.8798 10.1463 70.0663 9.86714C70.2529 9.58802 70.5179 9.37046 70.8281 9.24199C71.1382 9.11353 71.4795 9.07992 71.8088 9.14541C72.138 9.2109 72.4404 9.37256 72.6778 9.60993C72.9152 9.84731 73.0768 10.1498 73.1423 10.479C73.2078 10.8083 73.1742 11.1495 73.0457 11.4597C72.9173 11.7698 72.6997 12.0349 72.4206 12.2214C72.1415 12.4079 71.8133 12.5075 71.4776 12.5075C71.0288 12.5029 70.5998 12.3226 70.2824 12.0053C69.9652 11.688 69.7848 11.2589 69.7803 10.8101ZM70.0633 13.3372H72.8928V22.7664H70.0633V13.3372Z" fill="black"/>
<path d="M85.1118 18.0514C85.1447 18.6747 85.0539 19.2983 84.845 19.8864C84.636 20.4744 84.3128 21.0154 83.894 21.4782C83.4752 21.9409 82.969 22.3162 82.4046 22.5827C81.8402 22.8491 81.2287 23.0014 80.6052 23.0306C80.0809 23.0591 79.5567 22.9707 79.0706 22.7717C78.5846 22.5727 78.149 22.2681 77.7951 21.8799V26.5381H74.9666V13.3368H77.7951V14.2229C78.149 13.8349 78.5847 13.5305 79.0708 13.3316C79.5568 13.1328 80.081 13.0445 80.6052 13.0732C81.2287 13.1023 81.8401 13.2544 82.4045 13.5207C82.9689 13.7871 83.4751 14.1623 83.8939 14.625C84.3128 15.0877 84.636 15.6285 84.845 16.2166C85.0539 16.8046 85.1447 17.4282 85.1118 18.0514ZM82.2832 18.0514C82.2721 17.6099 82.131 17.1816 81.8777 16.8198C81.6243 16.4581 81.2698 16.1792 80.8588 16.0179C80.4476 15.8566 79.9981 15.8203 79.5664 15.9132C79.1347 16.0062 78.7399 16.2244 78.4316 16.5406C78.1233 16.8567 77.9151 17.2569 77.8331 17.6908C77.751 18.1247 77.7988 18.5732 77.9704 18.9801C78.142 19.387 78.4298 19.7342 78.7977 19.9784C79.1658 20.2226 79.5976 20.3528 80.0392 20.3528C80.3425 20.3665 80.6451 20.3158 80.9274 20.2042C81.2097 20.0926 81.4652 19.9225 81.6771 19.7052C81.889 19.4878 82.0526 19.2282 82.1571 18.9431C82.2615 18.6581 82.3045 18.3542 82.2832 18.0514Z" fill="black"/>
<path d="M93.8427 19.9358C93.8427 22.1048 91.9566 23.0289 89.9199 23.0289C89.0972 23.1034 88.2709 22.9292 87.5481 22.5289C86.8253 22.1288 86.2393 21.5209 85.8657 20.784L88.3169 19.3891C88.4166 19.7298 88.6301 20.0258 88.922 20.2279C89.2137 20.4299 89.566 20.5256 89.9199 20.4991C90.5989 20.4991 90.9374 20.2909 90.9374 19.9145C90.9374 18.8766 86.2986 19.4242 86.2986 16.1609C86.2986 14.1056 88.033 13.0687 89.9985 13.0687C90.7359 13.0455 91.4658 13.2205 92.112 13.5753C92.7595 13.9301 93.2988 14.4518 93.6753 15.0861L91.2621 16.3875C91.1565 16.14 90.9804 15.929 90.7557 15.781C90.531 15.6329 90.2676 15.5544 89.9985 15.555C89.5083 15.555 89.2068 15.74 89.2068 16.0832C89.204 17.1654 93.8427 16.4486 93.8427 19.9358Z" fill="black"/>
<path d="M104.181 13.3373V22.7666H101.353V21.8786C101.026 22.2697 100.611 22.5779 100.142 22.778C99.674 22.978 99.1643 23.0641 98.6556 23.0292C96.751 23.0292 95.1295 21.6714 95.1295 19.1249V13.3373H97.9581V18.7124C97.9341 18.9371 97.96 19.1644 98.033 19.3783C98.1061 19.5921 98.2245 19.7876 98.3808 19.9509C98.5372 20.1143 98.7268 20.2415 98.9368 20.324C99.1476 20.4065 99.3733 20.442 99.599 20.4282C100.636 20.4282 101.357 19.8251 101.357 18.4857V13.3373H104.181Z" fill="black"/>
<path d="M120.394 16.976V22.7664H117.566V17.2221C117.566 16.2795 117.112 15.6755 116.208 15.6755C115.264 15.6755 114.737 16.3359 114.737 17.4487V22.7664H111.907V17.2221C111.907 16.2795 111.455 15.6755 110.55 15.6755C109.607 15.6755 109.079 16.3359 109.079 17.4487V22.7664H106.25V13.3371H109.083V14.2011C109.377 13.8164 109.761 13.5113 110.203 13.3136C110.644 13.1161 111.129 13.0322 111.611 13.0698C112.094 13.0462 112.577 13.1483 113.01 13.3664C113.443 13.5844 113.812 13.9108 114.081 14.3139C114.395 13.8922 114.81 13.5568 115.288 13.3393C115.766 13.1217 116.293 13.029 116.816 13.0698C118.981 13.0735 120.394 14.6192 120.394 16.976Z" fill="black"/>
<path d="M122.791 13.279C123.951 13.279 124.891 12.3389 124.891 11.1793C124.891 10.0197 123.951 9.07959 122.791 9.07959C121.631 9.07959 120.691 10.0197 120.691 11.1793C120.691 12.3389 121.631 13.279 122.791 13.279Z" fill="black"/>
<path d="M31.1604 8.99988H33.9899V22.7664H31.1604V8.99988ZM35.592 18.0518C35.5889 17.0632 35.8792 16.0959 36.4261 15.2725C36.9731 14.449 37.7521 13.8063 38.6645 13.4259C39.577 13.0454 40.5817 12.9442 41.5518 13.1352C42.5217 13.3262 43.4132 13.8006 44.1133 14.4986C44.8134 15.1965 45.2907 16.0864 45.4847 17.0558C45.6787 18.0252 45.5807 19.0303 45.2031 19.9439C44.8255 20.8575 44.1854 21.6385 43.3636 22.1881C42.5418 22.7376 41.5755 23.031 40.5869 23.031C39.9303 23.0379 39.279 22.9141 38.6708 22.6665C38.0627 22.419 37.5099 22.0527 37.045 21.5892C36.5799 21.1256 36.2119 20.574 35.9624 19.9667C35.713 19.3594 35.5871 18.7084 35.592 18.0518ZM42.7588 18.0518C42.7477 17.6253 42.6111 17.2116 42.3661 16.8625C42.1212 16.5133 41.7786 16.244 41.3815 16.0884C40.9842 15.9329 40.55 15.8979 40.133 15.9879C39.716 16.0778 39.3348 16.2888 39.0371 16.5942C38.7393 16.8997 38.5383 17.2862 38.4591 17.7053C38.3799 18.1245 38.426 18.5577 38.5917 18.9508C38.7574 19.3438 39.0353 19.6793 39.3907 19.9153C39.7461 20.1512 40.1632 20.2771 40.5897 20.2773C40.8818 20.2856 41.1725 20.2333 41.4433 20.1237C41.7143 20.0142 41.9595 19.8496 42.1636 19.6405C42.3678 19.4314 42.5264 19.1823 42.6294 18.9089C42.7325 18.6354 42.7778 18.3435 42.7625 18.0518H42.7588ZM56.8638 13.3344V22.2929C56.8638 25.4609 54.3932 26.7994 51.8856 26.7994C51.0029 26.866 50.1189 26.6883 49.3305 26.2857C48.5421 25.8833 47.8797 25.2714 47.416 24.5174L49.8293 23.1216C50.0241 23.5151 50.3345 23.8398 50.7188 24.0523C51.1031 24.2646 51.543 24.3546 51.9799 24.3102C52.2588 24.3483 52.5426 24.3233 52.8105 24.237C53.0783 24.1507 53.3234 24.0055 53.5276 23.8118C53.7317 23.6182 53.8898 23.3812 53.9902 23.1182C54.0905 22.8553 54.1306 22.5732 54.1074 22.2929V21.4252C53.776 21.8304 53.3543 22.1523 52.8762 22.3651C52.398 22.5779 51.8766 22.6758 51.3537 22.6508C50.1091 22.6121 48.9284 22.0905 48.0617 21.1964C47.195 20.3023 46.7103 19.106 46.7103 17.8608C46.7103 16.6155 47.195 15.4192 48.0617 14.5251C48.9284 13.631 50.1091 13.1094 51.3537 13.0707C51.8766 13.0457 52.398 13.1435 52.8762 13.3564C53.3543 13.5692 53.776 13.8911 54.1074 14.2964V13.3344H56.8638ZM54.1111 17.8603C54.1298 17.4049 54.0117 16.9543 53.7722 16.5665C53.5328 16.1786 53.1828 15.8713 52.7672 15.6839C52.3517 15.4966 51.8895 15.4379 51.4404 15.5153C50.9912 15.5927 50.5754 15.8027 50.2465 16.1183C49.9176 16.4339 49.6906 16.8406 49.5947 17.2862C49.4988 17.7319 49.5384 18.1959 49.7084 18.6189C49.8784 19.0418 50.171 19.4042 50.5486 19.6595C50.9262 19.9148 51.3715 20.0513 51.8273 20.0516C52.1245 20.0724 52.4228 20.0309 52.703 19.9296C52.9831 19.8283 53.239 19.6695 53.4541 19.4633C53.6692 19.2572 53.8389 19.0083 53.952 18.7328C54.0651 18.4571 54.1193 18.1609 54.1111 17.8631V17.8603ZM58.4659 18.0453C58.4628 17.0567 58.7531 16.0895 59.3 15.266C59.847 14.4425 60.626 13.7998 61.5384 13.4194C62.4509 13.0389 63.4556 12.9378 64.4256 13.1287C65.3956 13.3197 66.287 13.7941 66.9872 14.4921C67.6873 15.19 68.1646 16.0799 68.3586 17.0493C68.5525 18.0187 68.4546 19.0238 68.077 19.9374C67.6994 20.851 67.0593 21.632 66.2375 22.1816C65.4157 22.7311 64.4494 23.0245 63.4608 23.0245C62.8048 23.0315 62.154 22.9078 61.5463 22.6606C60.9386 22.4136 60.3861 22.0478 59.9212 21.585C59.4562 21.1221 59.0881 20.5714 58.8383 19.9647C58.5884 19.3581 58.4618 18.7078 58.4659 18.0518V18.0453ZM65.6327 18.0453C65.6217 17.6186 65.4852 17.2046 65.2403 16.8551C64.9953 16.5056 64.6525 16.2362 64.2552 16.0804C63.8577 15.9246 63.4232 15.8896 63.006 15.9796C62.5887 16.0695 62.2073 16.2806 61.9094 16.5862C61.6115 16.8919 61.4103 17.2786 61.3311 17.698C61.2518 18.1174 61.2981 18.5509 61.4639 18.9441C61.6299 19.3374 61.908 19.673 62.2637 19.9091C62.6194 20.145 63.0368 20.2708 63.4636 20.2708C63.7548 20.2785 64.0445 20.2261 64.3145 20.1166C64.5845 20.0072 64.8289 19.8431 65.0326 19.6348C65.2362 19.4265 65.3947 19.1783 65.4979 18.9059C65.6012 18.6335 65.6471 18.3427 65.6327 18.0518V18.0453Z" fill="black"/>
</g>
<path d="M12.6912 22.5537C10.1263 22.5537 8.04712 20.4745 8.04712 17.9097C8.04712 15.3448 10.1263 13.2656 12.6912 13.2656C15.256 13.2656 17.3352 15.3448 17.3352 17.9097C17.3352 20.4745 15.256 22.5537 12.6912 22.5537Z" fill="#DF92D7"/>
<path d="M3.69452 19.4968C2.34872 19.7341 1.42624 21.0341 1.94285 22.2993C2.6641 24.0656 3.81477 25.6393 5.30652 26.869C7.43962 28.6274 10.1301 29.5669 12.8941 29.5187C15.658 29.4705 18.3141 28.4376 20.3846 26.6058C21.8325 25.3248 22.9275 23.7119 23.5868 21.9215C24.0589 20.6391 23.0915 19.372 21.7383 19.1818C20.3851 18.9917 19.17 19.9767 18.5016 21.1686C18.1393 21.8147 17.6689 22.4008 17.1054 22.8994C15.9175 23.9504 14.3935 24.543 12.8078 24.5707C11.2219 24.5983 9.67821 24.0593 8.45435 23.0504C7.87376 22.5718 7.38327 22.0025 6.9986 21.3694C6.289 20.2015 5.04033 19.2595 3.69452 19.4968Z" fill="#F1A87F"/>
<path d="M24.2117 19.3609C24.2709 18.8856 24.3014 18.4014 24.3014 17.9101C24.3014 11.498 19.1034 6.29993 12.6913 6.29993C6.27921 6.29993 1.08118 11.498 1.08118 17.9101C1.08118 18.5406 1.13145 19.1595 1.22821 19.7628C1.76148 19.0328 2.59379 18.5116 3.4928 18.3531C4.46549 18.1816 5.34951 18.4175 6.09696 18.8585C6.05281 18.5487 6.02996 18.232 6.02996 17.9101C6.02996 14.2311 9.01237 11.2487 12.6913 11.2487C16.3703 11.2487 19.3527 14.2311 19.3527 17.9101C19.3527 18.1526 19.3397 18.3922 19.3144 18.628C20.0461 18.1611 20.9215 17.8943 21.8998 18.0318C22.8035 18.1588 23.6532 18.6503 24.2117 19.3609Z" fill="#5C6DA8"/>
</svg>
