<svg width="138" height="36" viewBox="0 0 138 36" fill="none" xmlns="http://www.w3.org/2000/svg">
<g opacity="0.7">
<path d="M46.1949 10.9823V21.6907L39.4281 10.9823H36.7214V25.767H39.4281V15.1431L46.1949 25.767H48.9016V10.9823H46.1949Z" fill="#4C6379"/>
<path d="M50.1213 13.7492H52.9113V10.9823H50.1213V13.7492ZM50.1629 25.767V15.2065H52.8696V25.767H50.1629Z" fill="#4C6379"/>
<path d="M64.5155 20.4868C64.5155 16.8328 61.9545 15.1009 59.2478 15.0798C56.5203 15.0587 54.0009 16.8328 54.0009 20.4868C54.0009 24.1407 56.5203 25.9149 59.2478 25.8938C61.7255 25.8726 63.4328 24.711 64.224 22.789L62.1211 21.9019C61.4757 23.2114 60.4554 23.676 59.2478 23.6972C58.2068 23.7183 57.02 23.2114 56.7701 21.3316H64.453C64.4947 21.057 64.5155 20.7825 64.5155 20.4868ZM59.2478 17.2553C60.2889 17.2764 61.3507 17.8466 61.6839 19.3674H56.8118C57.1657 17.8255 58.2276 17.2341 59.2478 17.2553Z" fill="#4C6379"/>
<path d="M70.7709 17.1708V15.0798H69.0636V12.2496L66.3569 13.0944V15.0798H64.6495V17.1708H66.3569V22.6411C66.3569 24.711 66.5234 25.767 69.6882 25.767H70.4169V23.3592H69.6882C69.1885 23.3592 69.0636 23.2747 69.0636 22.6411V17.1708H70.7709Z" fill="#4C6379"/>
<path d="M74.7929 23.4648L80.5395 17.5087V15.2065H71.9196V17.5087H77.4996L71.753 23.4648V25.767H80.6019V23.4648H74.7929Z" fill="#4C6379"/>
<path d="M81.5724 22.789L84.2999 22.3665C84.4873 23.4226 85.7157 23.8239 86.4653 23.8239C87.2357 23.8239 88.5682 23.6549 88.5682 22.3877C88.5682 19.9165 81.8847 23.0002 81.8847 18.2691C81.8847 15.2276 85.3618 15.0587 86.4653 15.0587C87.5063 15.0587 90.5254 15.2276 91.15 17.6777L88.5682 18.2268C88.3392 17.1074 87.1732 16.8962 86.5486 16.8962C85.924 16.8962 84.5914 17.044 84.5914 18.2691C84.5914 20.7191 91.2749 17.5932 91.2749 22.3877C91.2749 25.6192 87.6104 25.8938 86.4653 25.8938C85.4243 25.8938 82.1137 25.6192 81.5724 22.789Z" fill="#4C6379"/>
<path d="M94.7912 20.4868C94.7912 23.0635 96.1446 23.845 97.5604 23.8239C98.8305 23.8028 99.705 23.2748 100.225 21.7963L102.453 22.8946C101.641 25.0489 99.6633 25.8726 97.5604 25.8938C94.8329 25.9149 92.0845 24.1407 92.0845 20.4868C92.0845 16.8328 94.8329 15.0587 97.5604 15.0798C99.6633 15.1009 101.641 15.9246 102.453 18.079L100.225 19.1773C99.705 17.6988 98.8305 17.1708 97.5604 17.1496C96.1446 17.1285 94.7912 17.91 94.7912 20.4868Z" fill="#4C6379"/>
<path d="M109.72 15.0375C108.325 15.0375 107.055 15.7768 106.243 17.3609V10.9823H103.536V25.767H106.243V22.0286C106.243 17.1919 108.221 16.7906 108.949 16.7906C110.115 16.7906 110.282 18.0156 110.282 19.8109V25.767H112.989V19.8109C112.989 17.5721 112.635 15.0375 109.72 15.0375Z" fill="#4C6379"/>
<path d="M124.416 20.4868C124.416 16.8328 121.855 15.1009 119.149 15.0798C116.421 15.0587 113.902 16.8328 113.902 20.4868C113.902 24.1407 116.421 25.9149 119.149 25.8938C121.626 25.8726 123.334 24.711 124.125 22.789L122.022 21.9019C121.376 23.2114 120.356 23.676 119.149 23.6972C118.108 23.7183 116.921 23.2114 116.671 21.3316H124.354C124.395 21.057 124.416 20.7825 124.416 20.4868ZM119.149 17.2553C120.19 17.2764 121.252 17.8466 121.585 19.3674H116.713C117.067 17.8255 118.128 17.2341 119.149 17.2553Z" fill="#4C6379"/>
</g>
<path d="M21.986 21.4198V27.9735C21.986 28.2247 21.8877 28.4657 21.7125 28.6432C21.5375 28.8209 21.3 28.9207 21.0523 28.9207C20.8047 28.9207 20.5671 28.8209 20.392 28.6432C20.2169 28.4657 20.1185 28.2247 20.1185 27.9735V21.4289C20.3785 21.6215 20.6902 21.729 21.0121 21.7371C21.3629 21.7472 21.7066 21.6353 21.986 21.4198ZM29.9388 19.5253C29.7018 19.5253 29.4745 19.6209 29.307 19.7908C29.1394 19.9608 29.0452 20.1914 29.0452 20.4318V21.5739C29.0452 21.8252 29.1436 22.0661 29.3188 22.2437C29.4938 22.4214 29.7313 22.5212 29.979 22.5212C30.2267 22.5212 30.4642 22.4214 30.6393 22.2437C30.8144 22.0661 30.9128 21.8252 30.9128 21.5739V20.4771C30.9198 20.3471 30.899 20.2171 30.852 20.096C30.805 19.9749 30.7329 19.8654 30.6404 19.7752C30.548 19.6849 30.4375 19.6158 30.3165 19.5727C30.1954 19.5296 30.0666 19.5135 29.9388 19.5253ZM18.0901 23.9035C17.7685 23.8937 17.4573 23.7864 17.1965 23.5953V30.1671C17.1965 30.4195 17.2954 30.6616 17.4713 30.8401C17.6473 31.0186 17.8859 31.1188 18.1348 31.1188C18.3836 31.1188 18.6222 31.0186 18.7982 30.8401C18.9742 30.6616 19.073 30.4195 19.073 30.1671V23.6406C18.7812 23.832 18.4369 23.9241 18.0901 23.9035ZM27.0258 17.5583C26.9047 17.5522 26.7837 17.5711 26.67 17.6139C26.5565 17.6567 26.4526 17.7225 26.3648 17.8073C26.2771 17.8921 26.2073 17.9941 26.1595 18.1071C26.1119 18.2201 26.0873 18.3419 26.0875 18.4648V23.5137C26.0875 23.7662 26.1864 24.0083 26.3623 24.1868C26.5383 24.3652 26.7769 24.4655 27.0258 24.4655C27.2746 24.4655 27.5133 24.3652 27.6892 24.1868C27.8652 24.0083 27.964 23.7662 27.964 23.5137V18.5282C27.9712 18.3974 27.9503 18.2666 27.9027 18.1448C27.8552 18.023 27.7823 17.913 27.6888 17.8226C27.5953 17.7321 27.4837 17.6632 27.3616 17.6208C27.2394 17.5783 27.1096 17.5631 26.9811 17.5765L27.0258 17.5583ZM24.0591 19.4981C23.7225 19.4958 23.3949 19.3882 23.1209 19.1899V25.7798C23.1209 26.0323 23.2197 26.2744 23.3956 26.4529C23.5717 26.6314 23.8103 26.7316 24.0591 26.7316C24.308 26.7316 24.5466 26.6314 24.7226 26.4529C24.8985 26.2744 24.9974 26.0323 24.9974 25.7798V19.199C24.7139 19.4132 24.3679 19.5249 24.0144 19.5163L24.0591 19.4981ZM16.0617 24.5471V6.13707C16.0593 5.91266 15.9698 5.69826 15.8125 5.54042C15.6553 5.38258 15.443 5.29406 15.2217 5.29407H15.0251C14.8039 5.29406 14.5916 5.38258 14.4343 5.54042C14.2771 5.69826 14.1875 5.91266 14.1852 6.13707V24.5471C14.1852 24.773 14.2737 24.9898 14.4312 25.1496C14.5887 25.3094 14.8024 25.3991 15.0251 25.3991H15.2217C15.4445 25.3991 15.6581 25.3094 15.8157 25.1496C15.9732 24.9898 16.0617 24.773 16.0617 24.5471ZM18.1884 23.2055H17.9918C17.769 23.2055 17.5554 23.1158 17.3978 22.956C17.2403 22.7962 17.1518 22.5794 17.1518 22.3535V8.33068C17.1542 8.10627 17.2437 7.89186 17.401 7.73403C17.5583 7.57619 17.7706 7.48767 17.9918 7.48768H18.1884C18.4096 7.48767 18.6219 7.57619 18.7792 7.73403C18.9364 7.89186 19.026 8.10627 19.0283 8.33068V22.3716C19.0283 22.5976 18.9398 22.8143 18.7823 22.9741C18.6248 23.1339 18.4111 23.2237 18.1884 23.2237V23.2055ZM21.1461 21.0482H20.9406C20.7202 21.0482 20.5088 20.9593 20.353 20.8013C20.1971 20.6432 20.1095 20.4288 20.1095 20.2052V10.5062C20.1084 10.3947 20.129 10.2841 20.1702 10.1808C20.2114 10.0774 20.2724 9.98344 20.3497 9.9042C20.427 9.82496 20.5191 9.76205 20.6205 9.71912C20.7219 9.67619 20.8307 9.65408 20.9406 9.65409H21.1461C21.3673 9.65649 21.5787 9.7473 21.7342 9.90684C21.8899 10.0664 21.9771 10.2817 21.9771 10.5062V20.2052C21.9771 20.4288 21.8895 20.6432 21.7337 20.8013C21.5779 20.9593 21.3665 21.0482 21.1461 21.0482ZM24.1038 18.8274H23.9162C23.6949 18.8274 23.4826 18.7389 23.3253 18.581C23.1681 18.4232 23.0785 18.2088 23.0762 17.9844V12.7632C23.0689 12.6468 23.0851 12.5302 23.1241 12.4204C23.163 12.3107 23.2237 12.2102 23.3025 12.1253C23.3812 12.0402 23.4762 11.9726 23.5819 11.9264C23.6874 11.8802 23.8012 11.8565 23.9162 11.8568H24.1127C24.3355 11.8568 24.5492 11.9465 24.7067 12.1063C24.8642 12.2661 24.9527 12.4829 24.9527 12.7088V17.9662C24.9539 18.0789 24.933 18.1907 24.8913 18.2951C24.8497 18.3995 24.788 18.4945 24.7098 18.5746C24.6317 18.6547 24.5388 18.7182 24.4362 18.7617C24.3337 18.8051 24.2238 18.8274 24.1127 18.8274H24.1038ZM27.0705 16.8785H26.8739C26.6511 16.8785 26.4374 16.7888 26.2799 16.629C26.1224 16.4691 26.0339 16.2524 26.0339 16.0264V14.6758C26.0362 14.4514 26.1258 14.237 26.283 14.0792C26.4403 13.9213 26.6526 13.8328 26.8739 13.8328H27.0705C27.2917 13.8328 27.504 13.9213 27.6613 14.0792C27.8186 14.237 27.9081 14.4514 27.9104 14.6758V16.0264C27.9104 16.2509 27.8232 16.4662 27.6675 16.6258C27.512 16.7853 27.3006 16.8761 27.0794 16.8785H27.0705Z" fill="#3F8810"/>
</svg>
