<svg width="42" height="42" viewBox="0 0 42 42" fill="none" xmlns="http://www.w3.org/2000/svg">
<path d="M5.25756 20.1167V25.249C5.25715 26.4426 5.73328 27.5874 6.58118 28.4315C7.42908 29.2757 8.57926 29.75 9.7786 29.75H32.3891C33.5882 29.75 34.7382 29.276 35.586 28.4323C36.4339 27.5885 36.9102 26.444 36.9102 25.2508V9.74925C36.9102 8.55596 36.4339 7.41153 35.586 6.56775C34.7382 5.72397 33.5882 5.25 32.3891 5.25H19.4174" stroke="black" stroke-linecap="round" stroke-linejoin="round"/>
<path fill-rule="evenodd" clip-rule="evenodd" d="M11.405 18.7383L16.6804 15.7383C17.2283 15.4267 17.5665 14.8469 17.5665 14.2189V8.25C17.5665 7.622 17.2283 7.04214 16.6804 6.73057L11.405 3.73058C10.8644 3.42314 10.2007 3.42314 9.6601 3.73058L4.38467 6.73057C3.83677 7.04214 3.49864 7.622 3.49864 8.25V14.2189C3.49864 14.8469 3.83677 15.4267 4.38467 15.7383L9.6601 18.7383C10.2007 19.0457 10.8644 19.0457 11.405 18.7383Z" stroke="black" stroke-linecap="round" stroke-linejoin="round"/>
<path d="M17.3262 7.37109L10.5338 11.2337" stroke="black" stroke-linecap="round" stroke-linejoin="round"/>
<path d="M3.73859 7.37109L10.5333 11.235" stroke="black" stroke-linecap="round" stroke-linejoin="round"/>
<path d="M10.5332 11.2346V18.9665" stroke="black" stroke-linecap="round" stroke-linejoin="round"/>
<path d="M24.418 29.75V36.7347" stroke="black" stroke-linecap="round" stroke-linejoin="round"/>
<path d="M17.418 29.75L17.418 36.7347" stroke="black" stroke-linecap="round" stroke-linejoin="round"/>
<path d="M14.168 36.75H27.6675" stroke="black" stroke-linecap="round" stroke-linejoin="round"/>
</svg>
