<svg width="93" height="36" viewBox="0 0 93 36" fill="none" xmlns="http://www.w3.org/2000/svg">
<path d="M77.0602 35.5001C76.5816 35.5001 76.1031 35.4523 75.6245 35.3568C75.1699 35.2851 74.7511 35.1657 74.3683 34.9986V31.5236C74.6554 31.5953 75.0024 31.655 75.4091 31.7027C75.8159 31.7744 76.2107 31.8102 76.5936 31.8102C77.7182 31.8102 78.5437 31.5595 79.0701 31.0579C79.6205 30.5803 80.111 29.8399 80.5417 28.8368L81.8339 25.8993L81.7621 29.3025L73.3633 8.23801H77.7062L83.9156 24.3946H82.444L88.6175 8.23801H92.9963L84.4181 29.7324C83.9635 30.8788 83.3892 31.8819 82.6953 32.7416C82.0253 33.6253 81.2237 34.306 80.2905 34.7836C79.3812 35.2613 78.3044 35.5001 77.0602 35.5001Z" fill="black"/>
<path d="M56.6836 27.6188V24.2872L68.0973 10.4949L68.7434 11.8921H57.222V8.23801H72.3326V11.5338L61.0624 25.3619L60.4164 23.9289H72.3685V27.6188H56.6836Z" fill="black"/>
<path d="M38.0781 27.6188V0.5H42.1339V18.6628L40.5547 18.2687L50.2815 8.23799H55.3423L48.0203 16.0118L55.6653 27.6188H50.9993L44.1798 17.3373L46.5846 17.0149L40.8418 23.105L42.1339 20.4182V27.6188H38.0781Z" fill="black"/>
<path d="M25.1826 28.0487C23.2444 28.0487 21.5216 27.6069 20.0141 26.7232C18.5306 25.8157 17.3701 24.5976 16.5326 23.0692C15.6951 21.5168 15.2764 19.7853 15.2764 17.8747C15.2764 15.9163 15.6951 14.1848 16.5326 12.6802C17.394 11.1756 18.5426 9.99339 19.9783 9.13361C21.4139 8.24995 23.0411 7.80812 24.8596 7.80812C26.3192 7.80812 27.6233 8.05889 28.7718 8.56043C29.9204 9.06196 30.8895 9.75456 31.6791 10.6382C32.4688 11.498 33.0669 12.4891 33.4737 13.6116C33.9044 14.7341 34.1198 15.9282 34.1198 17.194C34.1198 17.5045 34.1078 17.8269 34.0839 18.1613C34.06 18.4956 34.0121 18.8061 33.9403 19.0927H18.4708V15.8685H31.6432L29.705 17.3373C29.9443 16.1671 29.8606 15.1282 29.4538 14.2206C29.0709 13.2892 28.4727 12.5608 27.6592 12.0354C26.8696 11.4861 25.9364 11.2114 24.8596 11.2114C23.7828 11.2114 22.8257 11.4861 21.9882 12.0354C21.1507 12.5608 20.5047 13.325 20.05 14.3281C19.5954 15.3073 19.4159 16.5014 19.5117 17.9105C19.392 19.224 19.5715 20.3704 20.05 21.3496C20.5525 22.3288 21.2464 23.093 22.1318 23.6423C23.0411 24.1916 24.07 24.4663 25.2185 24.4663C26.391 24.4663 27.384 24.2036 28.1976 23.6782C29.0351 23.1527 29.6931 22.4721 30.1716 21.6362L33.4737 23.2483C33.0909 24.1558 32.4927 24.9798 31.6791 25.7201C30.8895 26.4366 29.9324 27.0098 28.8077 27.4397C27.707 27.8457 26.4987 28.0487 25.1826 28.0487Z" fill="black"/>
<path d="M10.2693 27.8337C8.23536 27.8337 6.6561 27.2605 5.53148 26.1141C4.40686 24.9677 3.84454 23.3557 3.84454 21.2779V11.892H0V8.23793H0.973164H3.13549V11.892H3.84454V8.23793V5.00105L7.90036 3.51388V7.43926H3.84454V8.23793H7.90036H12.3151V11.892H7.90036V21.0988C7.90036 21.7675 8.00804 22.3407 8.2234 22.8183C8.43875 23.2721 8.78571 23.6303 9.26427 23.893C9.74283 24.1319 10.365 24.2513 11.1307 24.2513C11.3221 24.2513 11.5374 24.2393 11.7767 24.2154C12.016 24.1916 12.2433 24.1677 12.4587 24.1438V27.6187C12.1237 27.6665 11.7528 27.7143 11.346 27.762C10.9392 27.8098 10.5803 27.8337 10.2693 27.8337Z" fill="black"/>
</svg>
