<svg width="52" height="54" viewBox="0 0 52 54" fill="none" xmlns="http://www.w3.org/2000/svg">
<path d="M17.1453 53.0003V38.0777M17.1453 53.0003L5.19995 46.4303V31.3039M17.1453 53.0003L28.8276 46.4303M17.1453 38.0777L5.19995 31.3039M17.1453 38.0777L28.8276 31.3039M5.19995 31.3039L17.1453 24.7848M28.8276 46.4303V31.3039M28.8276 46.4303C40.828 48.466 44.823 47.1055 47.6666 40.4205L35.9843 16.585M28.8276 31.3039L17.1453 24.7848M28.8276 31.3039L35.9843 16.585M17.1453 24.7848V6.24609M35.9843 16.585V6.24609" stroke="black"/>
<path d="M35.9843 6.55142C35.9843 8.07401 34.9407 9.46071 33.2352 10.4694C31.5306 11.4776 29.1724 12.1028 26.5648 12.1028C23.9573 12.1028 21.599 11.4776 19.8944 10.4694C18.1889 9.46071 17.1453 8.07401 17.1453 6.55142C17.1453 5.02884 18.1889 3.64214 19.8944 2.63342C21.599 1.62523 23.9573 1 26.5648 1C29.1724 1 31.5306 1.62523 33.2352 2.63342C34.9407 3.64214 35.9843 5.02884 35.9843 6.55142Z" stroke="black"/>
</svg>
