<svg width="16" height="17" viewBox="0 0 16 17" fill="none" xmlns="http://www.w3.org/2000/svg">
<path d="M14.6415 12.7192C14.6415 12.9592 14.5881 13.2058 14.4748 13.4458C14.3615 13.6858 14.2148 13.9125 14.0215 14.1258C13.6948 14.4858 13.3348 14.7458 12.9281 14.9125C12.5281 15.0792 12.0948 15.1658 11.6281 15.1658C10.9481 15.1658 10.2215 15.0058 9.45479 14.6792C8.68813 14.3525 7.92146 13.9125 7.16146 13.3592C6.39479 12.7992 5.66813 12.1792 4.97479 11.4925C4.28813 10.7992 3.66813 10.0725 3.11479 9.31252C2.56813 8.55252 2.12813 7.79252 1.80813 7.03918C1.48813 6.27918 1.32812 5.55252 1.32812 4.85918C1.32812 4.40585 1.40812 3.97252 1.56812 3.57252C1.72813 3.16585 1.98146 2.79252 2.33479 2.45919C2.76146 2.03919 3.22813 1.83252 3.72146 1.83252C3.90813 1.83252 4.09479 1.87252 4.26146 1.95252C4.43479 2.03252 4.58813 2.15252 4.70813 2.32585L6.25479 4.50585C6.37479 4.67252 6.46146 4.82585 6.52146 4.97252C6.58146 5.11252 6.61479 5.25252 6.61479 5.37918C6.61479 5.53918 6.56813 5.69918 6.47479 5.85252C6.38813 6.00585 6.26146 6.16585 6.10146 6.32585L5.59479 6.85252C5.52146 6.92585 5.48813 7.01252 5.48813 7.11918C5.48813 7.17252 5.49479 7.21918 5.50813 7.27252C5.52813 7.32585 5.54813 7.36585 5.56146 7.40585C5.68146 7.62585 5.88813 7.91252 6.18146 8.25918C6.48146 8.60585 6.80146 8.95918 7.14813 9.31252C7.50813 9.66585 7.85479 9.99252 8.20813 10.2925C8.55479 10.5858 8.84146 10.7858 9.06813 10.9058C9.10146 10.9192 9.14146 10.9392 9.18813 10.9592C9.24146 10.9792 9.29479 10.9858 9.35479 10.9858C9.46813 10.9858 9.55479 10.9458 9.62813 10.8725L10.1348 10.3725C10.3015 10.2058 10.4615 10.0792 10.6148 9.99918C10.7681 9.90585 10.9215 9.85918 11.0881 9.85918C11.2148 9.85918 11.3481 9.88585 11.4948 9.94585C11.6415 10.0058 11.7948 10.0925 11.9615 10.2058L14.1681 11.7725C14.3415 11.8925 14.4615 12.0325 14.5348 12.1992C14.6015 12.3658 14.6415 12.5325 14.6415 12.7192Z" stroke="white" stroke-miterlimit="10"/>
</svg>
