<svg width="93" height="35" viewBox="0 0 93 35" fill="none" xmlns="http://www.w3.org/2000/svg">
<path d="M77.0602 34.9999C76.5816 34.9999 76.1031 34.9521 75.6245 34.8566C75.1699 34.7849 74.7511 34.6655 74.3683 34.4983V31.0234C74.6554 31.0951 75.0024 31.1548 75.4091 31.2025C75.8159 31.2742 76.2107 31.31 76.5936 31.31C77.7182 31.31 78.5437 31.0592 79.0701 30.5577C79.6205 30.08 80.111 29.3397 80.5417 28.3366L81.8339 25.399L81.7621 28.8023L73.3633 7.73779H77.7062L83.9156 23.8944H82.444L88.6175 7.73779H92.9963L84.4181 29.2322C83.9635 30.3786 83.3892 31.3816 82.6953 32.2414C82.0253 33.1251 81.2237 33.8057 80.2905 34.2834C79.3812 34.761 78.3044 34.9999 77.0602 34.9999Z" fill="white"/>
<path d="M56.6836 27.1186V23.787L68.0973 9.99471L68.7434 11.3918H57.222V7.73779H72.3326V11.0336L61.0624 24.8617L60.4164 23.4287H72.3685V27.1186H56.6836Z" fill="white"/>
<path d="M38.0781 27.1188V0H42.1339V18.1628L40.5547 17.7687L50.2815 7.73799H55.3423L48.0203 15.5118L55.6653 27.1188H50.9993L44.1798 16.8373L46.5846 16.5149L40.8418 22.605L42.1339 19.9182V27.1188H38.0781Z" fill="white"/>
<path d="M25.1826 27.5487C23.2444 27.5487 21.5216 27.1068 20.0141 26.2232C18.5306 25.3156 17.3701 24.0976 16.5326 22.5691C15.6951 21.0168 15.2764 19.2853 15.2764 17.3747C15.2764 15.4163 15.6951 13.6848 16.5326 12.1802C17.394 10.6756 18.5426 9.49337 19.9783 8.63359C21.4139 7.74994 23.0411 7.30811 24.8596 7.30811C26.3192 7.30811 27.6233 7.55888 28.7718 8.06041C29.9204 8.56195 30.8895 9.25454 31.6791 10.1382C32.4688 10.998 33.0669 11.9891 33.4737 13.1116C33.9044 14.2341 34.1198 15.4282 34.1198 16.694C34.1198 17.0045 34.1078 17.3269 34.0839 17.6612C34.06 17.9956 34.0121 18.3061 33.9403 18.5927H18.4708V15.3685H31.6432L29.705 16.8373C29.9443 15.667 29.8606 14.6281 29.4538 13.7206C29.0709 12.7892 28.4727 12.0608 27.6592 11.5353C26.8696 10.986 25.9364 10.7114 24.8596 10.7114C23.7828 10.7114 22.8257 10.986 21.9882 11.5353C21.1507 12.0608 20.5047 12.825 20.05 13.8281C19.5954 14.8073 19.4159 16.0014 19.5117 17.4105C19.392 18.724 19.5715 19.8704 20.05 20.8496C20.5525 21.8288 21.2464 22.593 22.1318 23.1423C23.0411 23.6916 24.07 23.9663 25.2185 23.9663C26.391 23.9663 27.384 23.7036 28.1976 23.1781C29.0351 22.6527 29.6931 21.9721 30.1716 21.1362L33.4737 22.7483C33.0909 23.6558 32.4927 24.4798 31.6791 25.2201C30.8895 25.9366 29.9324 26.5098 28.8077 26.9397C27.707 27.3457 26.4987 27.5487 25.1826 27.5487Z" fill="white"/>
<path d="M10.2693 27.3335C8.23536 27.3335 6.6561 26.7603 5.53148 25.6139C4.40686 24.4675 3.84454 22.8555 3.84454 20.7777V11.3918H0V7.73772H0.973164H3.13549V11.3918H3.84454V7.73772V4.50085L7.90036 3.01367V6.93905H3.84454V7.73772H7.90036H12.3151V11.3918H7.90036V20.5985C7.90036 21.2673 8.00804 21.8404 8.2234 22.3181C8.43875 22.7719 8.78571 23.1301 9.26427 23.3928C9.74283 23.6316 10.365 23.7511 11.1307 23.7511C11.3221 23.7511 11.5374 23.7391 11.7767 23.7152C12.016 23.6914 12.2433 23.6675 12.4587 23.6436V27.1185C12.1237 27.1663 11.7528 27.2141 11.346 27.2618C10.9392 27.3096 10.5803 27.3335 10.2693 27.3335Z" fill="white"/>
</svg>
